<svg xmlns="http://www.w3.org/2000/svg" id="Layer_1" data-name="Layer 1" viewBox="0 0 299.5 259.5"><defs><style>.cls-1{fill:#a6ce39;}.cls-2{fill:#fff;}.cls-3{fill:none;}</style></defs><title>orchid</title><path class="cls-1" d="M287.5,129.5a128,128,0,1,1-128-128A128,128,0,0,1,287.5,129.5Z"/><path class="cls-2" d="M117.8,187.7H102.4V80.6h15.4V187.7Z"/><path class="cls-2" d="M140.4,80.6H182c39.6,0,57,28.3,57,53.6,0,27.5-21.5,53.6-56.8,53.6H140.4Zm15.4,93.3h24.5c34.9,0,42.9-26.5,42.9-39.7,0-21.5-13.7-39.7-43.7-39.7H155.8v79.4Z"/><path class="cls-2" d="M120.2,58.3a10.1,10.1,0,1,1-10.1-10.1A10.14,10.14,0,0,1,120.2,58.3Z"/><rect class="cls-3" width="299.5" height="259.5"/></svg>