<svg xmlns="http://www.w3.org/2000/svg" xmlns:xlink="http://www.w3.org/1999/xlink" width="22" height="6" viewBox="0 0 22 6"><defs><clipPath id="a"><path d="M3,22a3,3,0,1,1,3-3A3,3,0,0,1,3,22Zm0-4a1,1,0,1,0,1,1A1,1,0,0,0,3,18Zm0-4a3,3,0,1,1,3-3A3,3,0,0,1,3,14Zm0-4a1,1,0,1,0,1,1A1,1,0,0,0,3,10ZM3,6A3,3,0,1,1,6,3,3,3,0,0,1,3,6ZM3,2A1,1,0,1,0,4,3,1,1,0,0,0,3,2Z" transform="translate(9 1)"/></clipPath></defs><g transform="translate(-1 15) rotate(-90)" clip-path="url(#a)"><rect width="24" height="24" fill="rgba(0,0,0,0)"/><rect width="24" height="24" fill="#6ba439"/></g></svg>