<svg xmlns="http://www.w3.org/2000/svg" xmlns:xlink="http://www.w3.org/1999/xlink" width="20" height="22" viewBox="0 0 20 22"><defs><clipPath id="a"><path d="M3,22a3,3,0,0,1-3-3V16a1,1,0,0,1,2,0v3a1,1,0,0,0,1,1H17a1,1,0,0,0,1-1V16a1,1,0,1,1,2,0v3a3,3,0,0,1-3,3Zm6.288-6.3-4-4a1,1,0,0,1,1.414-1.414L9,12.586V1a1,1,0,0,1,2,0V12.586l2.293-2.293a1,1,0,0,1,1.414,1.414l-4,4a1,1,0,0,1-1.423,0Z" transform="translate(2 1)"/></clipPath></defs><g transform="translate(-2 -1)"><path d="M3,22a3,3,0,0,1-3-3V16a1,1,0,0,1,2,0v3a1,1,0,0,0,1,1H17a1,1,0,0,0,1-1V16a1,1,0,1,1,2,0v3a3,3,0,0,1-3,3Zm6.288-6.3-4-4a1,1,0,0,1,1.414-1.414L9,12.586V1a1,1,0,0,1,2,0V12.586l2.293-2.293a1,1,0,0,1,1.414,1.414l-4,4a1,1,0,0,1-1.423,0Z" transform="translate(2 1)"/><g clip-path="url(#a)"><rect width="24" height="24" fill="rgba(0,0,0,0)"/><rect width="24" height="24"/></g></g></svg>