<?xml version="1.0" encoding="UTF-8"?>
<svg width="40px" height="39px" viewBox="0 0 40 39" version="1.1" xmlns="http://www.w3.org/2000/svg" xmlns:xlink="http://www.w3.org/1999/xlink">
    <!-- Generator: Sketch 54.1 (76490) - https://sketchapp.com -->
    <title>facebook</title>
    <desc>Created with Sketch.</desc>
    <g id="Page-1" stroke="none" stroke-width="1" fill="none" fill-rule="evenodd">
        <g id="Home---Desktop-" transform="translate(-1359.000000, -820.000000)" fill-rule="nonzero">
            <g id="Group-3" transform="translate(1179.000000, 781.000000)">
                <g id="facebook" transform="translate(180.000000, 39.000000)">
                    <path d="M23.7837838,38.8669764 C23.4247385,38.9045608 23.0643782,38.9391892 22.7027027,38.9708615 C23.0643782,38.9391892 23.4247385,38.9045608 23.7837838,38.8669764 Z" id="Path" fill="#000000"></path>
                    <path d="M23.949073,38.8899916 C23.8388801,38.9102618 23.7286873,38.9288429 23.6184945,38.9478463 C23.7286873,38.9288429 23.8388801,38.9102618 23.949073,38.8899916 Z" id="Path" fill="#000000"></path>
                    <path d="M22.7027027,38.8788007 C22.3442124,38.9092061 21.983478,38.9362331 21.6216216,38.9590371 C21.983478,38.9362331 22.3442124,38.9092061 22.7027027,38.8788007 Z" id="Path" fill="#000000"></path>
                    <path d="M22.867992,38.8946368 C22.7581569,38.9119511 22.6476063,38.9279983 22.5374134,38.943201 C22.6476063,38.9279983 22.7581569,38.9119511 22.867992,38.8946368 Z" id="Path" fill="#000000"></path>
                    <path d="M23.949073,38.8883024 C23.8391987,38.9089949 23.7288466,38.9296876 23.6184945,38.9495355 C23.7288466,38.9296876 23.8391987,38.9089949 23.949073,38.8883024 Z" id="Path" fill="#000000"></path>
                    <path d="M25.0301541,37.8051098 C24.9199613,37.8274915 24.8097685,37.8486064 24.6995756,37.8705659 C24.8097685,37.8486064 24.9199613,37.8274915 25.0301541,37.8051098 Z" id="Path" fill="#000000"></path>
                    <path d="M25.0301541,37.8044764 C24.9203237,37.8268581 24.8099496,37.8496622 24.6995756,37.8711993 C24.8099496,37.8496622 24.9203237,37.8272804 25.0301541,37.8044764 Z" id="Path" fill="#000000"></path>
                    <path d="M25.0301541,37.8072213 C24.9206435,37.8283362 24.8101096,37.8481841 24.6995756,37.8684544 C24.8101096,37.8481841 24.9206435,37.8283362 25.0301541,37.8072213 Z" id="Path" fill="#000000"></path>
                    <path d="M21.7869109,38.9024494 C21.6768244,38.9146959 21.5667379,38.9256757 21.4563324,38.9353885 C21.5667379,38.9256757 21.6768244,38.9146959 21.7869109,38.9024494 Z" id="Path" fill="#000000"></path>
                    <path d="M40,19.4594595 C40,8.71393979 31.0440063,0 20,0 C8.95599367,0 0,8.71393979 0,19.4594595 C0,30.2049791 8.95599367,38.9189189 20,38.9189189 C20.1174927,38.9189189 20.234375,38.9165435 20.3515625,38.914465 L20.3515625,23.7661001 L16.0546875,23.7661001 L16.0546875,18.893812 L20.3515625,18.893812 L20.3515625,15.308409 C20.3515625,11.1502323 22.9605102,8.88704863 26.7727661,8.88704863 C28.5983277,8.88704863 30.1675415,9.01947846 30.625,9.07856711 L30.625,13.4244022 L27.9962158,13.4244022 C25.9222412,13.4244022 25.5206298,14.3834789 25.5206298,15.7906197 L25.5206298,18.893812 L30.4797363,18.893812 L29.8333741,23.7661001 L25.5206298,23.7661001 L25.5206298,38.1670978 C33.8803101,35.8353239 40,28.3417572 40,19.4594595 Z" id="Path" fill="#4A4A4A"></path>
                    <path d="M21.6216216,38.8973818 C21.2626649,38.9159628 20.9021291,38.9307432 20.5405405,38.9404561 C20.9021291,38.9307432 21.2626649,38.9159628 21.6216216,38.8973818 Z" id="Path" fill="#000000"></path>
                    <path d="M20.7058298,38.9132179 C20.5958396,38.9182854 20.4855454,38.9220862 20.3752513,38.9246199 C20.4855454,38.9220862 20.5958396,38.9182854 20.7058298,38.9132179 Z" id="Path" fill="#000000"></path>
                </g>
            </g>
        </g>
    </g>
</svg>