<svg xmlns="http://www.w3.org/2000/svg" xmlns:xlink="http://www.w3.org/1999/xlink" width="27.5" height="25.667" viewBox="0 0 27.5 25.667"><defs><clipPath id="a"><path d="M1.833,25.667a1.834,1.834,0,0,1,0-3.668H25.667a1.834,1.834,0,0,1,0,3.668Zm0-11a1.833,1.833,0,0,1,0-3.666H25.667a1.833,1.833,0,0,1,0,3.666Zm0-11A1.833,1.833,0,1,1,1.833,0H25.667a1.833,1.833,0,0,1,0,3.666Z"/></clipPath></defs><g transform="translate(0 0)" clip-path="url(#a)"><g transform="translate(-9.167 -9.167)"><rect width="44" height="44" fill="rgba(0,0,0,0)"/><rect width="44" height="44" fill="#6ba439"/></g></g></svg>