<?xml version="1.0" encoding="UTF-8"?>
<svg width="16px" height="22px" viewBox="0 0 16 22" version="1.1" xmlns="http://www.w3.org/2000/svg" xmlns:xlink="http://www.w3.org/1999/xlink">
    <!-- Generator: Sketch 54.1 (76490) - https://sketchapp.com -->
    <title>align-left</title>
    <desc>Created with Sketch.</desc>
    <defs>
        <path d="M15.8333333,16 L15.8333333,3 L5.41666667,3 C4.72631073,3 4.16666667,3.67157288 4.16666667,4.5 L4.16666667,16.3368156 C4.54552308,16.1208455 4.96933446,16 5.41666667,16 L15.8333333,16 Z M15.8333333,18 L5.41666667,18 C4.72631073,18 4.16666667,18.6715729 4.16666667,19.5 C4.16666667,20.3284271 4.72631073,21 5.41666667,21 L15.8333333,21 L15.8333333,18 Z M5.41666667,1 L16.6666667,1 C17.126904,1 17.5,1.44771525 17.5,2 L17.5,22 C17.5,22.5522847 17.126904,23 16.6666667,23 L5.41666667,23 C3.80583615,23 2.5,21.4329966 2.5,19.5 L2.5,4.5 C2.5,2.56700338 3.80583615,1 5.41666667,1 Z" id="path-1"></path>
    </defs>
    <g id="Symbols" stroke="none" stroke-width="1" fill="none" fill-rule="evenodd">
        <g id="Sidebars/Desktop/Article-Sidebar" transform="translate(-24.000000, -262.000000)">
            <g id="Order-printed-copies" transform="translate(-1.000000, 240.000000)">
                <g id="Type-and-icons" transform="translate(21.000000, 21.000000)">
                    <g id="Icons/Printed-Copies">
                        <g id="book" transform="translate(2.000000, 0.000000)">
                            <mask id="mask-2" fill="white">
                                <use xlink:href="#path-1"></use>
                            </mask>
                            <use id="Combined-Shape" fill="#000000" fill-rule="nonzero" xlink:href="#path-1"></use>
                            <g id="COLOR/-black" mask="url(#mask-2)" fill="#000000" fill-rule="evenodd">
                                <rect id="Rectangle" x="0" y="0" width="20" height="24"></rect>
                            </g>
                        </g>
                    </g>
                </g>
            </g>
        </g>
    </g>
</svg>