<svg xmlns="http://www.w3.org/2000/svg" xmlns:xlink="http://www.w3.org/1999/xlink" width="18" height="14" viewBox="0 0 18 14"><defs><clipPath id="a"><path d="M10.293,13.707a1,1,0,0,1,0-1.414L14.586,8H1A1,1,0,0,1,1,6H14.586L10.293,1.707A1,1,0,0,1,11.707.293l6,6a1,1,0,0,1,.172.231h0l.01.019,0,.005.007.014.006.012,0,.008.008.018v0a1,1,0,0,1-.009.817l0,0L17.9,7.44l0,.009-.005.011-.007.013,0,.008-.008.015,0,.005-.01.016,0,0-.011.017,0,0-.012.018,0,0-.012.017,0,0L17.8,7.6l0,0-.011.014,0,.006-.01.012-.009.011-.006.007-.015.017h0l-.04.042-6,6a1,1,0,0,1-1.414,0Z" transform="translate(3 5)"/></clipPath></defs><g transform="translate(-3 -5)"><path d="M10.293,13.707a1,1,0,0,1,0-1.414L14.586,8H1A1,1,0,0,1,1,6H14.586L10.293,1.707A1,1,0,0,1,11.707.293l6,6a1,1,0,0,1,.172.231h0l.01.019,0,.005.007.014.006.012,0,.008.008.018v0a1,1,0,0,1-.009.817l0,0L17.9,7.44l0,.009-.005.011-.007.013,0,.008-.008.015,0,.005-.01.016,0,0-.011.017,0,0-.012.018,0,0-.012.017,0,0L17.8,7.6l0,0-.011.014,0,.006-.01.012-.009.011-.006.007-.015.017h0l-.04.042-6,6a1,1,0,0,1-1.414,0Z" transform="translate(3 5)"/><g clip-path="url(#a)"><rect width="24" height="24" fill="rgba(0,0,0,0)"/><rect width="24" height="24" fill="#6ba439"/></g></g></svg>