<svg xmlns="http://www.w3.org/2000/svg" xmlns:xlink="http://www.w3.org/1999/xlink" width="22.917" height="18" viewBox="0 0 22.917 18"><defs><clipPath id="a"><path d="M3.125,18A3.067,3.067,0,0,1,0,15V3.01C0,3,0,2.99,0,2.98A3.068,3.068,0,0,1,3.125,0H19.792a3.068,3.068,0,0,1,3.126,3V15a3.068,3.068,0,0,1-3.126,3ZM2.083,15a1.022,1.022,0,0,0,1.042,1H19.792a1.022,1.022,0,0,0,1.042-1V4.921l-8.778,5.9a1.076,1.076,0,0,1-1.194,0l-8.778-5.9ZM11.458,8.78l9.265-6.226A1.047,1.047,0,0,0,19.792,2H3.125a1.047,1.047,0,0,0-.932.553Z" transform="translate(0)"/></clipPath></defs><g transform="translate(0)" clip-path="url(#a)"><g transform="translate(-1.042 -3)"><rect width="25" height="24" fill="rgba(0,0,0,0)"/><rect width="24" height="24" fill="#6ba439"/></g></g></svg>