<?xml version="1.0" encoding="UTF-8" standalone="no"?>
<svg width="46px" height="45px" viewBox="0 0 46 45" version="1.1" xmlns="http://www.w3.org/2000/svg" xmlns:xlink="http://www.w3.org/1999/xlink">
    <!-- Generator: Sketch 47.1 (45422) - http://www.bohemiancoding.com/sketch -->
    <title>12942_International_Journal_of_Health_Geographics_logo_Midnight</title>
    <desc>Created with Sketch.</desc>
    <defs>
        <polygon id="path-1" points="0.0482142857 30.5469643 0.0482142857 0.0691071429 45.0231751 0.0691071429 45.0231751 30.5469643"></polygon>
        <polygon id="path-3" points="0.0482142857 10.3901786 0.0482142857 0.310982143 7.27473214 0.310982143 7.27473214 10.3901786"></polygon>
        <polygon id="path-5" points="0.0554464286 0.802767857 5.00785714 0.802767857 5.00785714 4.94839286 0.0554464286 4.94839286 0.0554464286 0.802767857"></polygon>
    </defs>
    <g id="Page-1" stroke="none" stroke-width="1" fill="none" fill-rule="evenodd">
        <g id="12942_International_Journal_of_Health_Geographics_logo_Midnight">
            <path d="M5.11232143,1.07919643 C5.66758929,1.07919643 6.22366071,1.07919643 6.778125,1.07919643 C6.91714286,1.07919643 7.05616071,1.07919643 7.19517857,1.07919643 C7.38,1.07919643 7.39607143,1.1475 7.509375,1.28491071 C7.711875,1.52919643 7.90392857,1.78151786 8.08955357,2.03866071 C8.75410714,2.964375 9.34714286,3.94232143 9.9675,4.89776786 C10.5966964,5.866875 11.2283036,6.83517857 11.9016964,7.77455357 C12.20625,8.19964286 12.5284821,8.59017857 12.909375,8.949375 C13.1158929,9.14383929 13.3288393,9.33107143 13.5401786,9.52071429 C13.6623214,9.63 13.9741071,9.815625 13.9982143,9.99 C14.0496429,10.3580357 13.6036607,10.8602679 13.3786607,11.1029464 C13.010625,11.5007143 12.5558036,11.8285714 12.0535714,12.0334821 C11.6180357,12.211875 11.1278571,12.2994643 10.665,12.1821429 C10.2101786,11.8936607 9.78508929,11.5529464 9.41866071,11.1559821 C8.72758929,10.40625 8.28321429,9.47491071 8.07428571,8.48089286 C7.599375,8.23901786 7.13169643,7.970625 6.71866071,7.63151786 C6.35785714,7.33339286 5.86125,6.890625 5.80660714,6.40044643 C5.72544643,5.67241071 6.48482143,5.78732143 6.845625,5.38633929 C7.02080357,5.19026786 6.92839286,5.11071429 6.77169643,4.94276786 C6.61178571,4.77080357 6.45026786,4.59964286 6.29116071,4.42767857 C5.96008929,4.07008929 5.63625,3.70285714 5.35660714,3.30348214 C5.11151786,2.95553571 4.90098214,2.58428571 4.741875,2.18973214 C4.76598214,2.10294643 5.02392857,1.97035714 5.1075,1.90526786 C5.30598214,1.75178571 5.30035714,1.76785714 5.23446429,1.52598214 C5.19348214,1.37732143 5.15410714,1.22785714 5.11232143,1.07919643" id="Fill-1" fill="#616073"></path>
            <path d="M10.738125,12.0101786 C11.109375,12.0969643 11.5376786,12.0455357 11.9828571,11.863125 C12.4465179,11.6726786 12.8836607,11.3665179 13.2420536,10.9775893 C13.7499107,10.4295536 13.8334821,10.1523214 13.8141964,10.0157143 C13.7997321,9.95464286 13.6221429,9.81883929 13.5458036,9.76178571 C13.4951786,9.72321429 13.449375,9.68866071 13.415625,9.65892857 L13.2725893,9.53116071 C13.1070536,9.38330357 12.9423214,9.23625 12.7816071,9.084375 C12.4240179,8.74767857 12.0961607,8.36517857 11.750625,7.88223214 C11.0515179,6.90830357 10.3925893,5.89339286 9.81080357,4.99821429 C9.63241071,4.72419643 9.45723214,4.44776786 9.28044643,4.17133929 C8.85133929,3.49875 8.40857143,2.80205357 7.93767857,2.14633929 C7.74080357,1.873125 7.554375,1.62964286 7.36633929,1.40383929 C7.34544643,1.378125 7.32776786,1.35482143 7.31089286,1.33392857 C7.25705357,1.26401786 7.25705357,1.26401786 7.19517857,1.26401786 L5.35580357,1.26401786 L5.42169643,1.50428571 C5.49642857,1.77991071 5.46991071,1.85866071 5.24410714,2.03464286 L5.22241071,2.05151786 C5.19267857,2.07321429 5.14928571,2.10214286 5.09785714,2.13428571 C5.0625,2.15678571 5.00223214,2.19375 4.95803571,2.22669643 C5.09866071,2.55294643 5.28348214,2.87839286 5.506875,3.19741071 C5.79375,3.60642857 6.13285714,3.98491071 6.42776786,4.30232143 C6.51455357,4.39794643 6.60375,4.49196429 6.69294643,4.58678571 L6.93,4.84071429 C7.06982143,4.99098214 7.26428571,5.1975 6.98303571,5.51008929 C6.82473214,5.68607143 6.61258929,5.77607143 6.42616071,5.85482143 C6.09830357,5.99303571 5.95607143,6.06696429 5.99142857,6.37955357 C6.04125,6.83357143 6.598125,7.29241071 6.83598214,7.48848214 C7.27151786,7.846875 7.77053571,8.11928571 8.15785714,8.31696429 L8.23741071,8.35714286 L8.25428571,8.443125 C8.465625,9.44276786 8.91482143,10.3371429 9.55446429,11.0314286 C9.88553571,11.390625 10.2833036,11.7200893 10.738125,12.0101786 Z M11.1053571,12.4216071 C10.9374107,12.4216071 10.7742857,12.4015179 10.6191964,12.3621429 L10.5902679,12.3549107 L10.5653571,12.3388393 C10.074375,12.0270536 9.64285714,11.6710714 9.28205357,11.2821429 C8.61589286,10.5597321 8.14258929,9.63642857 7.91035714,8.60625 C7.51901786,8.40375 7.03366071,8.13053571 6.60053571,7.77375 C6.15053571,7.40330357 5.68205357,6.9525 5.62339286,6.42053571 C5.55669643,5.81946429 5.97455357,5.64267857 6.28151786,5.51330357 C6.44785714,5.44339286 6.60455357,5.3775 6.70741071,5.26258929 C6.74919643,5.21598214 6.75642857,5.19589286 6.75642857,5.19508929 C6.74839286,5.18946429 6.69616071,5.13401786 6.66,5.09303571 L6.42214286,4.83910714 C6.33214286,4.74428571 6.24375,4.64946429 6.15616071,4.55383929 C5.85401786,4.22758929 5.50446429,3.83625 5.20392857,3.40955357 C4.93955357,3.03348214 4.72660714,2.64535714 4.57071429,2.25883929 L4.54741071,2.20017857 L4.56428571,2.13991071 C4.59803571,2.019375 4.72017857,1.93580357 4.90098214,1.82169643 C4.93875,1.79758929 4.97330357,1.77669643 4.99419643,1.75982143 L5.0175,1.74214286 C5.04080357,1.72285714 5.06732143,1.70276786 5.08660714,1.6875 C5.08017857,1.66419643 5.07133929,1.63205357 5.06330357,1.60232143 L4.86964286,0.894375 L7.19517857,0.894375 C7.42178571,0.894375 7.50776786,0.982767857 7.60419643,1.10732143 C7.61705357,1.125 7.63392857,1.14508929 7.65080357,1.16678571 C7.84446429,1.400625 8.03732143,1.65053571 8.23821429,1.93178571 C8.71473214,2.59633929 9.16071429,3.29625 9.59303571,3.97366071 C9.76821429,4.24928571 9.94419643,4.52491071 10.1209821,4.79732143 C10.7003571,5.68928571 11.3576786,6.70017857 12.0511607,7.666875 C12.3838393,8.13053571 12.695625,8.49535714 13.0347321,8.81517857 C13.1938393,8.96464286 13.3569643,9.11008929 13.5200893,9.25473214 L13.663125,9.38330357 C13.69125,9.40741071 13.7282143,9.43633929 13.7691964,9.46767857 C13.9395536,9.59705357 14.1516964,9.75857143 14.180625,9.96508929 C14.2392857,10.38375 13.8551786,10.8610714 13.5128571,11.2299107 C13.1166964,11.6582143 12.6353571,11.9957143 12.121875,12.20625 C11.7723214,12.3492857 11.4308036,12.4216071 11.1053571,12.4216071 L11.1053571,12.4216071 Z" id="Fill-2" fill="#1C263C"></path>
            <path d="M2.70723214,1.75821429 C2.88723214,1.89883929 3.06883929,2.04026786 3.24964286,2.18089286 C3.35732143,2.26446429 3.27616071,2.59553571 3.20705357,2.68955357 C3.05678571,2.89205357 2.74901786,2.90892857 2.52160714,2.92982143 C3.54696429,4.92107143 4.87928571,6.72991071 6.31526786,8.44071429 C7.06741071,9.33589286 7.84607143,10.2085714 8.62392857,11.08125 C8.99758929,11.4999107 9.37125,11.919375 9.74008929,12.34125 C9.84776786,12.465 9.93214286,12.5067857 9.91366071,12.6779464 C9.90160714,12.7936607 9.87991071,12.9085714 9.84857143,13.0202679 C9.78428571,13.2492857 9.67580357,13.4630357 9.52875,13.6502679 C9.24669643,14.0086607 8.85375,14.2529464 8.47607143,14.4980357 C8.37401786,14.5647321 8.27116071,14.6322321 8.17151786,14.7021429 C8.01964286,14.8090179 8.00276786,14.7117857 7.87901786,14.596875 C7.65482143,14.3895536 7.43544643,14.1766071 7.22169643,13.9588393 C6.45669643,13.1753571 5.75919643,12.3283929 5.09625,11.4573214 C3.71732143,9.64607143 2.480625,7.72714286 1.02053571,5.97696429 C0.845357143,5.76642857 0.666964286,5.55830357 0.484553571,5.35419643 C0.364821429,5.21919643 0.301339286,5.191875 0.301339286,5.00544643 C0.301339286,4.81178571 0.301339286,4.618125 0.301339286,4.42366071 C0.301339286,3.74464286 0.301339286,3.06642857 0.301339286,2.38741071 C0.301339286,2.09651786 0.301339286,1.805625 0.301339286,1.51473214 C0.301339286,1.36928571 0.301339286,1.22383929 0.301339286,1.07919643 C0.492589286,1.07919643 0.684642857,1.07919643 0.876696429,1.07919643 C1.54848214,1.07919643 2.21946429,1.07919643 2.89125,1.07919643 C2.829375,1.30580357 2.76830357,1.53160714 2.70723214,1.75821429" id="Fill-3" fill="#616073"></path>
            <path d="M0.485357143,1.26401786 L0.485357143,5.00544643 C0.485357143,5.08580357 0.486160714,5.08741071 0.560089286,5.16455357 C0.578571429,5.18383929 0.600267857,5.20553571 0.621964286,5.23125 C0.800357143,5.43053571 0.981160714,5.64107143 1.16276786,5.85883929 C2.05875,6.93321429 2.88321429,8.08714286 3.68116071,9.20410714 C4.18580357,9.91205357 4.70892857,10.6441071 5.24410714,11.3472321 C6.0075,12.3508929 6.67848214,13.1391964 7.35428571,13.8310714 C7.56803571,14.0496429 7.78660714,14.2625893 8.004375,14.4626786 C8.03571429,14.4908036 8.05901786,14.5173214 8.08071429,14.5414286 C8.17794643,14.4739286 8.27678571,14.4088393 8.375625,14.3445536 L8.44071429,14.3019643 C8.78303571,14.0801786 9.13741071,13.8503571 9.38330357,13.5369643 C9.51669643,13.3674107 9.613125,13.1769643 9.67178571,12.97125 C9.69830357,12.8724107 9.71839286,12.7679464 9.72964286,12.6594643 C9.73607143,12.6072321 9.73607143,12.6072321 9.66616071,12.5349107 C9.64526786,12.5132143 9.62357143,12.4899107 9.59946429,12.4633929 C9.230625,12.0423214 8.85776786,11.6228571 8.48491071,11.205 L8.36839286,11.0732143 C7.64035714,10.2567857 6.88821429,9.41303571 6.17303571,8.56044643 C4.47589286,6.53785714 3.26330357,4.775625 2.356875,3.01419643 L2.23151786,2.77071429 L2.54410714,2.74178571 C2.73133929,2.72491071 2.96598214,2.70401786 3.05758929,2.57946429 C3.08973214,2.53285714 3.12589286,2.37455357 3.11625,2.31026786 L2.49589286,1.828125 L2.649375,1.26401786 L0.485357143,1.26401786 Z M8.06464286,14.934375 C7.93767857,14.934375 7.86535714,14.8532143 7.81151786,14.7945536 C7.79544643,14.776875 7.77696429,14.7559821 7.75366071,14.7342857 C7.53267857,14.5301786 7.30848214,14.3132143 7.08991071,14.0890179 C6.40285714,13.3866964 5.72303571,12.5863393 4.95,11.570625 C4.41080357,10.8634821 3.88607143,10.1290179 3.37982143,9.41866071 C2.58589286,8.30732143 1.76544643,7.15982143 0.878303571,6.09508929 C0.700714286,5.88053571 0.519910714,5.67321429 0.346339286,5.47714286 C0.32625,5.45544643 0.308571429,5.43616071 0.2925,5.41928571 C0.201696429,5.32366071 0.115714286,5.23366071 0.115714286,5.00544643 L0.115714286,0.894375 L3.13392857,0.894375 L2.91696429,1.6875 L3.36294643,2.03464286 C3.594375,2.21464286 3.448125,2.67348214 3.35491071,2.79964286 C3.21991071,2.98285714 3.01017857,3.05116071 2.81089286,3.08410714 C3.69,4.74107143 4.85517857,6.4125 6.4575,8.32178571 C7.16946429,9.17035714 7.91919643,10.0125 8.64482143,10.8265179 L8.76214286,10.9583036 C9.13660714,11.3769643 9.50946429,11.7972321 9.87910714,12.2199107 C9.89839286,12.2416071 9.916875,12.2608929 9.93375,12.2785714 C10.0173214,12.3661607 10.1225893,12.4746429 10.0984821,12.6988393 C10.0848214,12.8274107 10.0615179,12.9527679 10.0285714,13.0708929 C9.95785714,13.3240179 9.83973214,13.5570536 9.67580357,13.7651786 C9.39053571,14.1275893 9.01044643,14.3734821 8.64321429,14.6121429 L8.578125,14.6539286 C8.47767857,14.7198214 8.37723214,14.7857143 8.27919643,14.8548214 C8.23017857,14.8885714 8.15383929,14.934375 8.06464286,14.934375 L8.06464286,14.934375 Z" id="Fill-4" fill="#1C263C"></path>
            <path d="M19.5484821,6.26142857 C18.9016071,5.97857143 18.590625,5.32285714 18.16875,4.80294643 C17.76375,4.303125 17.2390179,4.02830357 16.5865179,4.04035714 C16.68375,4.72660714 17.2767857,5.011875 17.8320536,5.29392857 C18.0988393,5.42892857 18.3696429,5.57758929 18.5673214,5.80741071 C18.6814286,5.93919643 18.7617857,6.09428571 18.8075893,6.26142857 C18.7441071,6.44544643 18.66375,6.62383929 18.5689286,6.79339286 C17.7605357,8.235 16.0577679,8.76133929 14.7366964,9.59223214 C13.8825,8.12169643 12.7655357,6.81991071 11.7594643,5.45464286 C10.8120536,4.16651786 9.76258929,2.70964286 9.55446429,1.08 C11.0571429,1.28732143 12.5839286,0.969107143 14.0922321,1.018125 C15.1561607,1.05267857 16.4161607,1.31303571 16.5865179,2.56017857 C17.1498214,1.86830357 17.9750893,1.43598214 18.8791071,1.57821429 C19.6746429,1.70276786 20.390625,2.21303571 20.84625,2.86633929 C21.2255357,3.40794643 21.4505357,4.10383929 21.2745536,4.76035714 C21.0583929,5.56473214 20.2990179,6.02919643 19.5484821,6.26142857" id="Fill-5" fill="#616073"></path>
            <path d="M16.8259821,4.235625 C16.9891071,4.65910714 17.4222321,4.87848214 17.8770536,5.10910714 L17.9148214,5.12839286 C18.0675,5.20633929 18.225,5.28991071 18.37125,5.39035714 C18.3559821,5.36946429 18.3423214,5.34857143 18.3270536,5.32767857 C18.225,5.18383929 18.1285714,5.04803571 18.0241071,4.91946429 C17.69625,4.51446429 17.2944643,4.28544643 16.8259821,4.235625 Z M9.77464286,1.29214286 C10.0502679,2.82214286 11.0764286,4.21473214 11.908125,5.34455357 C12.1974107,5.7375 12.5027679,6.13285714 12.796875,6.51616071 C13.4895536,7.41535714 14.2039286,8.34267857 14.799375,9.33669643 C15.1127679,9.14946429 15.4438393,8.97428571 15.766875,8.80473214 C16.7866071,8.26714286 17.8416964,7.711875 18.4066071,6.70258929 C18.4861607,6.56116071 18.5552679,6.41089286 18.613125,6.25580357 C18.5721429,6.13446429 18.5102679,6.024375 18.4266964,5.92714286 C18.2523214,5.72383929 17.9951786,5.58321429 17.7484821,5.45785714 L17.7107143,5.43857143 C17.1482143,5.15410714 16.5117857,4.83107143 16.4041071,4.06607143 L16.374375,3.85955357 L16.6275,3.85553571 C17.2984821,3.85553571 17.865,4.13517857 18.3133929,4.68642857 C18.4242857,4.82383929 18.52875,4.97169643 18.63,5.11392857 C18.9032143,5.49964286 19.1627679,5.86526786 19.5605357,6.06294643 C20.07,5.89580357 20.8816071,5.50928571 21.0961607,4.71133929 C21.24,4.17696429 21.09375,3.54214286 20.694375,2.97160714 C20.2419643,2.323125 19.5533036,1.87071429 18.8501786,1.760625 C18.0755357,1.63848214 17.3016964,1.97598214 16.7303571,2.67669643 L16.4611607,3.00696429 L16.4041071,2.58508929 C16.2819643,1.70116071 15.5241964,1.24875 14.085,1.20214286 C13.4734821,1.18205357 12.8458929,1.22464286 12.2375893,1.265625 C11.7305357,1.299375 11.2058036,1.33473214 10.6883036,1.33473214 C10.3588393,1.33553571 10.0575,1.32107143 9.77464286,1.29214286 Z M14.6716071,9.85098214 L14.5751786,9.68544643 C13.9741071,8.65044643 13.2267857,7.68053571 12.5035714,6.74196429 C12.2078571,6.35785714 11.9016964,5.96089286 11.61,5.56473214 C10.71,4.3425 9.58901786,2.82133929 9.37044643,1.10330357 L9.33991071,0.863839286 L9.57857143,0.896785714 C9.91607143,0.943392857 10.2792857,0.965892857 10.6866964,0.965892857 C11.1913393,0.965892857 11.7096429,0.931339286 12.2110714,0.897589286 C12.8282143,0.855803571 13.4670536,0.813214286 14.09625,0.833303571 C15.530625,0.879910714 16.4000893,1.33151786 16.6853571,2.17607143 C17.3097321,1.56133929 18.118125,1.27205357 18.905625,1.39580357 C19.7059821,1.52116071 20.4878571,2.03142857 20.9965179,2.76026786 C21.4585714,3.42080357 21.6249107,4.16732143 21.4513393,4.80776786 C21.25125,5.55348214 20.5939286,6.13205357 19.6007143,6.43821429 L19.5348214,6.45830357 L19.4721429,6.43098214 C19.2664286,6.34098214 19.0928571,6.21883929 18.9401786,6.07741071 C18.9570536,6.12160714 18.9723214,6.16660714 18.984375,6.21241071 L19.00125,6.26785714 L18.9835714,6.32169643 C18.9152679,6.51696429 18.8300893,6.70580357 18.7304464,6.88339286 C18.1125,7.9875 17.0083929,8.56928571 15.9396429,9.13098214 C15.5507143,9.33589286 15.1826786,9.53035714 14.8355357,9.748125 L14.6716071,9.85098214 L14.6716071,9.85098214 Z" id="Fill-6" fill="#1C263C"></path>
            <path d="M25.47,1.81928571 C24.6455357,2.70401786 23.6008929,3.34446429 22.516875,3.86357143 C22.3923214,3.92383929 22.2661607,3.9825 22.1383929,4.03955357 C22.0596429,3.93348214 21.9825,3.825 21.9077679,3.71571429 C21.7325893,3.45616071 21.5686607,3.19017857 21.403125,2.925 C21.076875,2.40267857 20.7377679,1.87633929 20.2885714,1.44964286 C20.8253571,0.928125 21.78,1.00125 22.4646429,1.03419643 C23.3349107,1.07598214 24.2341071,1.21741071 25.1003571,1.07919643 C25.07625,1.153125 24.8833929,1.57098214 24.9155357,1.63446429 C24.9460714,1.69794643 25.3952679,1.79517857 25.47,1.81928571" id="Fill-7" fill="#616073"></path>
            <path d="M20.5641964,1.46410714 C20.9434821,1.86107143 21.2416071,2.31910714 21.560625,2.82696429 L21.6353571,2.94830357 C21.7719643,3.16767857 21.9141964,3.39508929 22.06125,3.61205357 C22.1054464,3.67875 22.15125,3.74464286 22.1986607,3.80973214 C22.2774107,3.77276786 22.3569643,3.73580357 22.4365179,3.69723214 C23.58,3.14839286 24.440625,2.57785714 25.115625,1.91651786 C24.879375,1.84982143 24.7925893,1.80321429 24.7483929,1.71723214 C24.7058036,1.63044643 24.7210714,1.53241071 24.8102679,1.30098214 C24.643125,1.31625 24.4647321,1.32267857 24.2750893,1.32267857 C23.8917857,1.32267857 23.5052679,1.29294643 23.1324107,1.26401786 C22.9041964,1.24633929 22.6783929,1.22866071 22.4541964,1.21821429 L22.3601786,1.21339286 C22.1769643,1.20455357 21.9889286,1.19491071 21.7936607,1.19491071 C21.4280357,1.19571429 20.9241964,1.22625 20.5641964,1.46410714 Z M22.0797321,4.27017857 L21.9913393,4.15205357 C21.9085714,4.04357143 21.8314286,3.93267857 21.7542857,3.82017857 C21.6032143,3.59758929 21.4609821,3.36776786 21.3219643,3.14517857 L21.245625,3.02383929 C20.9008929,2.47258929 20.581875,1.98482143 20.16,1.58383929 L20.0209821,1.45125 L20.1583929,1.31705357 C20.6108036,0.876696429 21.3083036,0.826071429 21.7936607,0.826071429 C21.9977679,0.826071429 22.2002679,0.835714286 22.3778571,0.844553571 L22.471875,0.849375 C22.7000893,0.860625 22.9299107,0.878303571 23.1597321,0.895982143 C23.5269643,0.924107143 23.90625,0.953839286 24.2750893,0.953839286 C24.57,0.953839286 24.8295536,0.935357143 25.070625,0.896785714 L25.3703571,0.848571429 L25.2755357,1.13705357 C25.2675,1.15714286 25.250625,1.20133929 25.2273214,1.25598214 C25.2032143,1.31464286 25.1501786,1.44080357 25.1188393,1.53160714 C25.21125,1.56133929 25.3446429,1.59508929 25.4065179,1.61116071 C25.4619643,1.625625 25.5069643,1.63767857 25.52625,1.64410714 L25.8002679,1.73491071 L25.6033929,1.94625 C24.8641071,2.739375 23.9086607,3.40151786 22.5964286,4.03151786 C22.4694643,4.09258929 22.3416964,4.15125 22.213125,4.20991071 L22.0797321,4.27017857 L22.0797321,4.27017857 Z" id="Fill-8" fill="#1C263C"></path>
            <g id="Group-16" transform="translate(0.000000, 0.803571)">
                <mask id="mask-2" fill="white">
                    <use xlink:href="#path-1"></use>
                </mask>
                <g id="Clip-10"></g>
                <path d="M32.1324107,0.275625 C33.3658929,0.275625 34.599375,0.275625 35.8328571,0.275625 C36.0602679,0.275625 36.5271429,0.179196429 36.6283929,0.391339286 C36.7376786,0.621160714 36.8525893,0.847767857 36.973125,1.07276786 C37.2342857,1.56053571 37.5171429,2.03544643 37.8152679,2.50151786 C38.9804464,4.32883929 40.3561607,6.01071429 41.5719643,7.80348214 C42.5708036,9.27723214 43.4611607,10.8345536 44.0453571,12.5228571 C44.6408036,14.2400893 44.8971429,16.05375 44.8296429,17.8690179 C44.7838393,19.0486607 44.6110714,20.221875 44.3458929,21.3725893 C38.6284821,15.4494643 34.4844643,8.15544643 32.1324107,0.275625" id="Fill-9" fill="#616073" mask="url(#mask-2)"></path>
                <path d="M32.3807143,0.460446429 C34.7359821,8.22053571 38.829375,15.3080357 44.2398214,20.9949107 C44.4696429,19.9157143 44.6054464,18.8630357 44.6432143,17.8625893 C44.7115179,16.0360714 44.4519643,14.2601786 43.8701786,12.5839286 C43.3591071,11.1069643 42.5796429,9.62116071 41.4176786,7.90794643 C40.89375,7.13330357 40.3288393,6.36669643 39.7816071,5.62419643 C39.0640179,4.65026786 38.323125,3.64258929 37.6585714,2.60196429 C37.3363393,2.09651786 37.0591071,1.625625 36.8091964,1.16035714 C36.6854464,0.928125 36.5673214,0.695892857 36.4604464,0.471696429 C36.4596429,0.471696429 36.4226786,0.439553571 36.2547321,0.439553571 C36.1767857,0.439553571 36.0964286,0.445982143 36.0233036,0.451607143 C35.9509821,0.456428571 35.8858929,0.46125 35.8320536,0.46125 L32.3807143,0.46125 L32.3807143,0.460446429 Z M44.4503571,21.7470536 L44.2133036,21.5011607 C38.5875,15.6728571 34.3494643,8.35232143 31.9548214,0.328660714 L31.8833036,0.0908035714 L35.8328571,0.0908035714 C35.8786607,0.0908035714 35.9349107,0.0859821429 35.9959821,0.0819642857 C36.07875,0.0755357143 36.16875,0.0691071429 36.2555357,0.0691071429 C36.3608036,0.0691071429 36.6782143,0.0691071429 36.7955357,0.311785714 C36.9,0.531964286 37.0141071,0.758571429 37.13625,0.985982143 C37.3805357,1.44160714 37.65375,1.90526786 37.9703571,2.40267857 C38.6276786,3.43285714 39.3653571,4.43491071 40.0797321,5.40482143 C40.6285714,6.14973214 41.1958929,6.92035714 41.7246429,7.700625 C42.9042857,9.44116071 43.6974107,10.9542857 44.2197321,12.4625893 C44.8159821,14.1822321 45.0827679,16.0039286 45.0120536,17.87625 C44.9694643,19.0044643 44.8063393,20.1945536 44.5266964,21.414375 L44.4503571,21.7470536 L44.4503571,21.7470536 Z" id="Fill-11" fill="#3C4257" mask="url(#mask-2)"></path>
                <path d="M1.78071429,9.52875 C1.25598214,9.51508929 0.837321429,9.75776786 0.670178571,10.2688393 C0.16875,10.0341964 0.229017857,9.28446429 0.256339286,8.83205357 C0.295714286,8.21571429 0.440357143,7.54955357 0.301339286,6.93723214 C1.52758929,6.87857143 1.40625,8.19241071 2.15116071,8.78785714 C1.96633929,8.84973214 1.78071429,8.91160714 1.59589286,8.97267857 C1.65776786,9.15830357 1.71964286,9.34392857 1.78071429,9.52875" id="Fill-12" fill="#616073" mask="url(#mask-2)"></path>
                <path d="M0.521517857,7.13008929 C0.572946429,7.53589286 0.529553571,7.94973214 0.486160714,8.35232143 C0.468482143,8.52267857 0.450803571,8.685 0.440357143,8.84491071 L0.43875,8.87544643 C0.417857143,9.22339286 0.385714286,9.72080357 0.595446429,9.97875 C0.784285714,9.62839286 1.11133929,9.40982143 1.52919643,9.35598214 L1.36205357,8.85616071 L1.80803571,8.7075 C1.63125,8.49375 1.51151786,8.24544643 1.39419643,8.00357143 C1.175625,7.55276786 1.00044643,7.18875 0.521517857,7.13008929 Z M0.781875,10.5259821 L0.592232143,10.4367857 C-0.01125,10.153125 0.039375,9.33830357 0.0699107143,8.85133929 L0.0715178571,8.82080357 C0.0819642857,8.65285714 0.100446429,8.48008929 0.118125,8.31214286 C0.167142857,7.86214286 0.215357143,7.39767857 0.119732143,6.97821429 L0.0707142857,6.76366071 L0.291696429,6.75321429 C1.18285714,6.71223214 1.47214286,7.31330357 1.726875,7.84205357 C1.87151786,8.139375 2.019375,8.44553571 2.26607143,8.64401786 L2.53205357,8.85616071 L1.82892857,9.09080357 L2.03946429,9.72080357 L1.73892857,9.71357143 C1.42151786,9.71357143 1.01008929,9.81964286 0.845357143,10.3266964 L0.781875,10.5259821 L0.781875,10.5259821 Z" id="Fill-13" fill="#1C263C" mask="url(#mask-2)"></path>
                <path d="M3.07767857,11.1945536 C3.11544643,11.0772321 3.15482143,10.9615179 3.19339286,10.845 C3.20383929,10.8128571 3.23276786,10.6553571 3.26169643,10.6392857 C3.40633929,10.6738393 3.54857143,10.7228571 3.68276786,10.7871429 C4.185,11.025 4.54017857,11.458125 4.82464286,11.9233929 C5.39116071,12.8499107 5.80741071,14.0175 6.96375,14.3405357 C6.36267857,16.0344643 4.62375,16.7150893 3.26169643,17.6721429 C5.00303571,19.9333929 6.25017857,22.5184821 7.72071429,24.9533036 C8.07508929,25.5399107 8.44232143,26.1184821 8.83366071,26.6817857 C9.04017857,26.9791071 9.25151786,27.2708036 9.4725,27.5584821 C9.60026786,27.7248214 9.44758929,27.7939286 9.31339286,27.9241071 C9.20089286,28.0341964 9.07955357,28.13625 8.955,28.231875 C7.88464286,29.0507143 6.52660714,29.3954464 5.48276786,30.2560714 C4.08696429,27.4708929 1.83857143,25.1823214 0.842142857,22.1874107 C0.3825,20.806875 0.195267857,19.3532143 0.221785714,17.9003571 C0.230625,17.4535714 0.257142857,17.0075893 0.301339286,16.5624107 C0.719196429,16.4169643 1.12580357,16.2433929 1.53803571,16.0794643 C2.33196429,15.76125 3.144375,15.508125 4.00258929,15.451875 C3.64982143,14.3935714 2.97642857,13.5136607 2.24357143,12.6883929 C2.05875,12.4802679 1.87232143,12.27375 1.68669643,12.065625 C1.51633929,11.8735714 1.26401786,11.6501786 1.62,11.4966964 C1.91008929,11.3705357 2.51839286,11.4669643 2.52241071,11.0113393 C2.70723214,11.0708036 2.89125,11.1326786 3.07767857,11.1945536" id="Fill-14" fill="#616073" mask="url(#mask-2)"></path>
                <path d="M0.473303571,16.6966071 C0.435535714,17.1088393 0.413035714,17.5138393 0.406607143,17.9027679 C0.378482143,19.4046429 0.584196429,20.8261607 1.01732143,22.12875 C1.60071429,23.8789286 2.64214286,25.4225893 3.64821429,26.9140179 C4.30714286,27.8919643 4.98857143,28.90125 5.54464286,29.9716071 C6.06133929,29.5842857 6.64071429,29.2998214 7.20321429,29.0241964 C7.76491071,28.749375 8.34348214,28.4665179 8.84169643,28.0848214 C8.96705357,27.99 9.08116071,27.8911607 9.18321429,27.7915179 C9.21133929,27.7641964 9.23946429,27.7400893 9.26598214,27.7167857 C9.28366071,27.7015179 9.30616071,27.6830357 9.32142857,27.6669643 C9.10848214,27.3889286 8.893125,27.0924107 8.68098214,26.78625 C8.32339286,26.2711607 7.95776786,25.7014286 7.56321429,25.048125 C7.09955357,24.283125 6.65276786,23.49 6.22125,22.7241964 C5.27785714,21.054375 4.30232143,19.3266964 3.11544643,17.7838393 L2.99732143,17.6311607 L3.155625,17.5202679 C3.47142857,17.2984821 3.81133929,17.08875 4.13919643,16.88625 C5.17258929,16.2490179 6.23892857,15.5908929 6.71946429,14.4554464 C5.84116071,14.1235714 5.40160714,13.3304464 4.97651786,12.5614286 C4.87205357,12.3717857 4.77241071,12.1925893 4.66714286,12.0198214 C4.336875,11.480625 3.99857143,11.1415179 3.60401786,10.9542857 C3.5325,10.9205357 3.45696429,10.89 3.37982143,10.8650893 C3.37580357,10.8819643 3.37098214,10.895625 3.36857143,10.9028571 L3.19339286,11.4283929 L2.65580357,11.2491964 C2.52723214,11.5167857 2.18651786,11.5698214 1.96473214,11.604375 C1.86267857,11.6204464 1.75660714,11.6373214 1.693125,11.6646429 C1.65857143,11.6799107 1.63928571,11.6927679 1.62803571,11.7008036 C1.648125,11.7482143 1.73008929,11.8374107 1.77589286,11.8880357 L1.82491071,11.941875 C1.91571429,12.0439286 2.00732143,12.1451786 2.09732143,12.2464286 C2.19214286,12.3525 2.28696429,12.4585714 2.38178571,12.5646429 C3.05758929,13.3272321 3.80008929,14.259375 4.17857143,15.3924107 L4.25410714,15.620625 L4.01544643,15.6358929 C3.29303571,15.6833036 2.55053571,15.8721429 1.60633929,16.250625 C1.50589286,16.2908036 1.40544643,16.3325893 1.305,16.3727679 C1.03419643,16.4820536 0.754553571,16.5945536 0.473303571,16.6966071 Z M5.42169643,30.5469643 L5.31803571,30.3388393 C4.75473214,29.2138393 4.03553571,28.1499107 3.34205357,27.1205357 C2.31991071,25.6082143 1.265625,24.0436607 0.666964286,22.2452679 C0.219375,20.9033036 0.00803571429,19.44 0.0361607143,17.8955357 C0.0441964286,17.46 0.0707142857,17.0051786 0.116517857,16.543125 L0.128571429,16.4258036 L0.239464286,16.3864286 C0.550446429,16.27875 0.861428571,16.1517857 1.16357143,16.0296429 C1.26401786,15.9886607 1.36607143,15.946875 1.468125,15.9066964 C2.34482143,15.5547321 3.06,15.3602679 3.74625,15.2871429 C3.369375,14.315625 2.71044643,13.4935714 2.10455357,12.8097321 C2.00973214,12.7044643 1.91571429,12.5991964 1.82089286,12.4939286 C1.72928571,12.391875 1.63848214,12.2898214 1.546875,12.1869643 L1.50348214,12.1371429 C1.37571429,11.998125 1.21821429,11.8245536 1.26160714,11.6196429 C1.288125,11.4942857 1.38375,11.3954464 1.54607143,11.3247321 C1.65294643,11.278125 1.78232143,11.2580357 1.90848214,11.23875 C2.255625,11.1849107 2.33517857,11.1407143 2.33758929,11.0073214 L2.34,10.7533929 L2.95955357,10.9599107 L3.02464286,10.7574107 C3.05357143,10.6336607 3.08008929,10.5275893 3.17491071,10.4761607 L3.23678571,10.4424107 L3.30589286,10.4592857 C3.46660714,10.4978571 3.62008929,10.5516964 3.763125,10.62 C4.22598214,10.839375 4.61491071,11.2226786 4.98455357,11.8269643 C5.09383929,12.0069643 5.19991071,12.1974107 5.30196429,12.3822321 C5.73910714,13.17375 6.15375,13.921875 7.01357143,14.1621429 L7.20401786,14.2151786 L7.13732143,14.4016071 C6.65276786,15.7700893 5.47392857,16.4973214 4.33366071,17.2004464 C4.06526786,17.3667857 3.78883929,17.5363393 3.526875,17.713125 C4.67598214,19.2366964 5.625,20.9169643 6.54267857,22.5441964 C6.97419643,23.3075893 7.419375,24.0958929 7.87901786,24.8576786 C8.27035714,25.5053571 8.63276786,26.0670536 8.98473214,26.5757143 C9.19446429,26.8786607 9.40821429,27.1711607 9.61794643,27.4451786 C9.82928571,27.72 9.60508929,27.9128571 9.50866071,27.9972321 C9.48616071,28.0149107 9.46366071,28.0358036 9.44196429,28.0566964 C9.32866071,28.1675893 9.20330357,28.2744643 9.0675,28.3773214 C8.53955357,28.7823214 7.94330357,29.0748214 7.36633929,29.356875 C6.75803571,29.655 6.12723214,29.964375 5.60008929,30.3983036 L5.42169643,30.5469643 L5.42169643,30.5469643 Z" id="Fill-15" fill="#1C263C" mask="url(#mask-2)"></path>
            </g>
            <path d="M18.4371429,8.48169643 C20.2266964,9.71919643 20.9949107,11.8824107 22.19625,13.606875 C22.2709821,13.7161607 22.348125,13.8230357 22.4292857,13.9291071 C22.5401786,14.0777679 22.4766964,14.0914286 22.3802679,14.2352679 C22.2500893,14.4305357 22.10625,14.6169643 21.9519643,14.79375 C21.6192857,15.1746429 21.2383929,15.5113393 20.835,15.8150893 C20.0209821,16.4290179 19.1201786,16.9151786 18.2466964,17.4350893 C17.8127679,17.6930357 17.3836607,17.9590179 16.9746429,18.253125 C16.7729464,18.3977679 16.5752679,18.5488393 16.385625,18.7095536 C16.2916071,18.7891071 16.2,18.8710714 16.1091964,18.9554464 C15.9830357,19.0735714 15.9091071,19.2567857 15.744375,19.1523214 C14.9102679,18.6251786 14.2529464,17.8754464 13.6944643,17.071875 C13.0596429,16.160625 12.5373214,15.1794643 11.9241964,14.2545536 C11.8309821,14.1139286 11.7425893,14.0833929 11.8398214,13.9291071 C11.9049107,13.8254464 11.9724107,13.7233929 12.0423214,13.6229464 C12.1813393,13.4236607 12.3267857,13.2316071 12.4826786,13.044375 C12.8145536,12.6433929 13.1809821,12.2729464 13.5699107,11.9266071 C15.058125,10.5991071 16.824375,9.64205357 18.4371429,8.48169643" id="Fill-17" fill="#616073"></path>
            <path d="M11.9900893,14.0367857 C11.9957143,14.0440179 12.0013393,14.05125 12.0077679,14.0584821 C12.0294643,14.0858036 12.0535714,14.1155357 12.0776786,14.1525 C12.3549107,14.5695536 12.616875,15.0034821 12.8691964,15.42375 C13.1785714,15.9372321 13.4983929,16.4675893 13.8447321,16.9658036 C14.4916071,17.8947321 15.1224107,18.5375893 15.8303571,18.9875893 C15.845625,18.9715179 15.8673214,18.9466071 15.8817857,18.928125 C15.913125,18.8919643 15.9452679,18.8541964 15.9814286,18.8204464 C16.0738393,18.7344643 16.1694643,18.6500893 16.2658929,18.5689286 C16.4491071,18.4130357 16.6451786,18.2603571 16.8653571,18.1028571 C17.3145536,17.780625 17.7886607,17.4921429 18.1510714,17.2767857 C18.3391071,17.1642857 18.52875,17.055 18.7183929,16.9441071 C19.3941964,16.5503571 20.0925,16.1429464 20.7249107,15.6680357 C21.1580357,15.3417857 21.5124107,15.0163393 21.8129464,14.6724107 C21.9648214,14.4988393 22.1038393,14.3172321 22.2275893,14.1332143 C22.2476786,14.101875 22.2669643,14.0761607 22.2838393,14.0536607 C22.2846429,14.0528571 22.28625,14.05125 22.2870536,14.0496429 C22.2854464,14.0472321 22.2830357,14.0440179 22.280625,14.0408036 C22.2002679,13.933125 22.1199107,13.8238393 22.0435714,13.7129464 C21.6715179,13.1785714 21.335625,12.5951786 21.0117857,12.0310714 C20.3094643,10.8088393 19.5846429,9.545625 18.4379464,8.70991071 C17.8955357,9.095625 17.3314286,9.46366071 16.785,9.82044643 C15.733125,10.5075 14.6434821,11.2178571 13.6936607,12.065625 C13.291875,12.4232143 12.931875,12.7920536 12.6241071,13.1633036 C12.4714286,13.3473214 12.3259821,13.5377679 12.1941964,13.7290179 C12.1258929,13.8270536 12.06,13.9266964 11.9965179,14.0279464 C11.9941071,14.0303571 11.9925,14.0335714 11.9900893,14.0367857 Z M15.8367857,19.3684821 C15.7716964,19.3684821 15.7074107,19.3483929 15.6447321,19.3090179 C14.889375,18.8316964 14.2208036,18.1542857 13.5409821,17.1779464 C13.1882143,16.6700893 12.864375,16.1333036 12.5525893,15.615 C12.3010714,15.1979464 12.0407143,14.7672321 11.7691071,14.3574107 C11.7522321,14.3300893 11.73375,14.3083929 11.7192857,14.2891071 C11.6517857,14.2039286 11.5376786,14.0616964 11.6839286,13.8310714 C11.750625,13.725 11.8197321,13.6205357 11.8904464,13.516875 C12.0286607,13.3175893 12.1805357,13.1191071 12.3396429,12.92625 C12.6586607,12.5413393 13.0315179,12.1580357 13.4461607,11.7883929 C14.4176786,10.9221429 15.5177679,10.20375 16.5816964,9.50946429 C17.1610714,9.13178571 17.7605357,8.74044643 18.3286607,8.33142857 L18.4347321,8.25508929 L18.5432143,8.32901786 C19.8184821,9.21133929 20.5883036,10.5500893 21.3324107,11.8454464 C21.6522321,12.4023214 21.9841071,12.9792857 22.3473214,13.5008036 C22.42125,13.6076786 22.4983929,13.7129464 22.5763393,13.8174107 C22.7378571,14.0311607 22.6671429,14.1613393 22.57875,14.27625 C22.5666964,14.293125 22.550625,14.3132143 22.5353571,14.3373214 C22.4027679,14.5341964 22.2533036,14.7286607 22.0925893,14.9142857 C21.774375,15.2775 21.3999107,15.6198214 20.9466964,15.9621429 C20.2982143,16.4507143 19.5902679,16.86375 18.9048214,17.263125 C18.7167857,17.3732143 18.5279464,17.4825 18.3415179,17.5941964 C17.9847321,17.8063393 17.5202679,18.0891964 17.0823214,18.4033929 C16.8709821,18.5552679 16.6821429,18.7015179 16.5061607,18.8509821 C16.41375,18.9289286 16.3229464,19.0084821 16.2361607,19.0904464 C16.2096429,19.1145536 16.1871429,19.1410714 16.16625,19.1675893 C16.093125,19.2527679 15.9950893,19.3684821 15.8367857,19.3684821 L15.8367857,19.3684821 Z" id="Fill-18" fill="#1C263C"></path>
            <path d="M43.6058036,9.59223214 C43.8372321,9.59223214 44.0686607,9.59223214 44.2992857,9.59223214 C44.4383036,9.59223214 44.5773214,9.59223214 44.7163393,9.59223214 C44.7163393,9.72482143 44.7163393,9.85660714 44.7163393,9.98919643 C44.7163393,10.47375 44.7163393,10.9583036 44.7163393,11.4436607 C44.2446429,10.8369643 43.6419643,10.4255357 43.6058036,9.59223214" id="Fill-19" fill="#616073"></path>
            <path d="M43.8115179,9.77705357 C43.891875,10.2310714 44.173125,10.5444643 44.4953571,10.8996429 C44.5074107,10.9133036 44.5194643,10.9269643 44.5315179,10.940625 L44.5315179,9.77705357 L43.8115179,9.77705357 Z M44.9011607,11.9820536 L44.5700893,11.5561607 C44.4591964,11.413125 44.3370536,11.2789286 44.2189286,11.1479464 C43.84125,10.7292857 43.4507143,10.2953571 43.4209821,9.59946429 L43.4121429,9.40660714 L44.9011607,9.40660714 L44.9011607,11.9820536 L44.9011607,11.9820536 Z" id="Fill-20" fill="#1C263C"></path>
            <path d="M19.5484821,36.9811607 C19.3588393,37.3708929 19.4086607,37.8345536 19.1884821,38.2226786 C19.0984821,38.3817857 18.9755357,38.5216071 18.826875,38.6292857 C18.7400893,38.6919643 18.646875,38.7458036 18.5480357,38.7883929 C18.3688393,38.8663393 18.2860714,38.6646429 18.1735714,38.5344643 C17.4407143,37.7011607 16.7472321,36.8341071 16.0834821,35.94375 C14.7375,34.1389286 13.516875,32.2441071 12.3428571,30.3251786 C11.120625,28.3275 9.94901786,26.3000893 8.73964286,24.2935714 C8.13455357,23.2899107 7.51821429,22.2910714 6.88178571,21.3050893 C6.57803571,20.835 6.27026786,20.3673214 5.956875,19.9044643 C5.799375,19.6730357 5.64107143,19.4440179 5.48196429,19.215 C5.54303571,18.9707143 5.66357143,18.7465179 5.82910714,18.5584821 C6.15133929,18.1920536 6.59973214,17.9702679 7.01839286,17.7340179 C7.50214286,17.4616071 7.93767857,17.1313393 8.29205357,16.6998214 C8.6175,16.3044643 8.86982143,15.8544643 9.16392857,15.4366071 C9.38169643,15.1296429 9.80919643,14.4297321 10.2407143,14.4257143 C10.625625,14.4216964 11.1182143,15.0565179 11.3649107,15.3104464 C11.7851786,15.7411607 12.1716964,16.2024107 12.5574107,16.6636607 C13.2766071,17.5266964 13.978125,18.4347321 14.416875,19.4777679 C14.5840179,19.8747321 14.77125,20.4002679 14.5663393,20.818125 C14.5189286,20.9153571 14.4490179,20.9989286 14.3638393,21.065625 C14.4441964,21.1853571 14.5253571,21.3050893 14.6041071,21.425625 C14.7921429,21.7052679 14.979375,21.9849107 15.1674107,22.26375 C15.8383929,23.2577679 16.5174107,24.2469643 17.2044643,25.2321429 C18.5705357,27.1920536 19.9663393,29.1334821 21.3926786,31.0524107 C21.7623214,31.5498214 22.1335714,32.0448214 22.5064286,32.5398214 C22.5554464,32.95125 22.4509821,33.3321429 22.1094643,33.586875 C21.4802679,34.05375 20.5794643,34.1357143 20.6566071,35.1313393 C19.2326786,35.0654464 19.3516071,33.1658036 18.0642857,32.9102679 C18.0530357,33.4566964 18.241875,33.9380357 18.6099107,34.3382143 C18.9474107,34.7070536 19.3692857,34.9979464 19.6400893,35.4254464 C19.7959821,35.6729464 19.8883929,35.9501786 19.9157143,36.2426786 C19.8771429,36.2997321 19.6441071,36.331875 19.5653571,36.3583929 C19.3435714,36.433125 19.3540179,36.410625 19.42875,36.6332143 C19.4697321,36.7473214 19.5083036,36.8654464 19.5484821,36.9811607" id="Fill-21" fill="#616073"></path>
            <path d="M5.68526786,19.1820536 C5.8275,19.3877679 5.96892857,19.5942857 6.10955357,19.8016071 C6.41008929,20.2435714 6.72267857,20.7160714 7.03767857,21.2054464 C7.60901786,22.0917857 8.20125,23.0432143 8.89794643,24.1995536 C9.42026786,25.0658036 9.945,25.9513393 10.45125,26.8063393 C11.1182143,27.9321429 11.806875,29.0957143 12.5003571,30.2295536 C13.9146429,32.5430357 15.0661607,34.2707143 16.2321429,35.8344643 C16.9328571,36.7746429 17.6134821,37.6183929 18.3117857,38.4147321 C18.3399107,38.4460714 18.3664286,38.4822321 18.3929464,38.5183929 C18.4170536,38.5497321 18.4532143,38.6003571 18.4765179,38.6188393 C18.568125,38.5778571 18.6476786,38.5328571 18.7183929,38.4822321 C18.8453571,38.3890179 18.9490179,38.2716964 19.0269643,38.1326786 C19.1274107,37.9542857 19.164375,37.749375 19.20375,37.5332143 C19.2375,37.3491964 19.27125,37.1571429 19.3491964,36.9739286 L19.2407143,36.6500893 C19.20375,36.5408036 19.1740179,36.4540179 19.2222321,36.3583929 C19.2704464,36.2619643 19.3572321,36.2338393 19.4673214,36.1976786 L19.5091071,36.1824107 C19.5364286,36.1751786 19.5782143,36.1647321 19.625625,36.1542857 C19.6489286,36.1478571 19.6842857,36.140625 19.7164286,36.1333929 C19.6786607,35.9124107 19.6015179,35.7083036 19.4866071,35.5266964 C19.3258929,35.2735714 19.1057143,35.0702679 18.8726786,34.8549107 C18.7392857,34.7327679 18.601875,34.6041964 18.4757143,34.4675893 C18.0691071,34.0240179 17.8698214,33.5000893 17.881875,32.9086607 L17.8858929,32.6892857 L18.1028571,32.7310714 C18.7947321,32.8692857 19.1290179,33.4285714 19.4239286,33.9219643 C19.7091964,34.4000893 19.9599107,34.81875 20.4709821,34.9248214 C20.5135714,34.2441964 21.0254464,33.980625 21.4810714,33.744375 C21.6602679,33.6527679 21.8434821,33.55875 22.0009821,33.4390179 C22.2508929,33.2558036 22.3617857,32.9761607 22.3304464,32.6129464 C21.9664286,32.1316071 21.6048214,31.6502679 21.2448214,31.1649107 C19.839375,29.2757143 18.4299107,27.315 17.0533929,25.340625 C16.36875,24.3570536 15.6825,23.3566071 15.0155357,22.3698214 C14.8283036,22.0901786 14.6394643,21.8113393 14.4514286,21.5316964 L14.1155357,21.0286607 L14.2505357,20.9233929 C14.3148214,20.8735714 14.36625,20.8100893 14.4008036,20.7401786 C14.5655357,20.4058929 14.4152679,19.9526786 14.2473214,19.5533036 C13.8005357,18.4909821 13.066875,17.5676786 12.4159821,16.7858036 C12.0077679,16.2964286 11.6373214,15.8576786 11.233125,15.4430357 C11.1889286,15.3972321 11.1366964,15.3401786 11.0796429,15.2758929 C10.8699107,15.0444643 10.4809821,14.61375 10.2439286,14.61375 C9.95464286,14.6169643 9.57776786,15.1666071 9.39616071,15.4301786 C9.36642857,15.4727679 9.33991071,15.5121429 9.315,15.5466964 C9.208125,15.6985714 9.10446429,15.8592857 9.00401786,16.014375 C8.82803571,16.284375 8.64642857,16.5640179 8.43589286,16.8203571 C8.094375,17.235 7.66125,17.5877679 7.10919643,17.8979464 L6.94848214,17.9879464 C6.59491071,18.1840179 6.22848214,18.3873214 5.968125,18.6830357 C5.83955357,18.8276786 5.74232143,18.9996429 5.68526786,19.1820536 Z M18.4716964,38.9900893 C18.2828571,38.9900893 18.1751786,38.8430357 18.095625,38.7361607 C18.0763393,38.7088393 18.0554464,38.6815179 18.03375,38.6558036 C17.3290179,37.8538393 16.6427679,37.0020536 15.935625,36.0546429 C14.7640179,34.4820536 13.6060714,32.7447321 12.1861607,30.4208036 C11.4902679,29.2845536 10.8008036,28.1209821 10.1338393,26.9935714 C9.62758929,26.139375 9.10446429,25.2546429 8.58133929,24.39 C7.88625,23.2360714 7.29723214,22.2878571 6.7275,21.4055357 C6.4125,20.9185714 6.10151786,20.4484821 5.80339286,20.0089286 C5.6475,19.7783036 5.49,19.5492857 5.33089286,19.321875 L5.28348214,19.2527679 L5.30276786,19.1708036 C5.37026786,18.9024107 5.50446429,18.6484821 5.69169643,18.4363393 C5.99303571,18.0924107 6.38839286,17.8730357 6.76928571,17.6616964 L6.92839286,17.5733036 C7.43866071,17.285625 7.83803571,16.9609821 8.14982143,16.5833036 C8.34830357,16.3430357 8.52348214,16.0722321 8.69303571,15.8110714 C8.79508929,15.6527679 8.90276786,15.4896429 9.01285714,15.3313393 C9.03696429,15.2975893 9.06267857,15.2598214 9.09080357,15.2188393 C9.35678571,14.8315179 9.75776786,14.2465179 10.2391071,14.2416964 C10.6449107,14.2416964 11.0539286,14.6941071 11.3528571,15.0251786 C11.4066964,15.0854464 11.4557143,15.1400893 11.4975,15.1826786 C11.9105357,15.6069643 12.2866071,16.0513393 12.6988393,16.5471429 C13.3682143,17.3499107 14.1211607,18.2989286 14.5880357,19.4078571 C14.7889286,19.884375 14.9633036,20.4340179 14.7326786,20.9016964 C14.6989286,20.97 14.6555357,21.0350893 14.6041071,21.09375 L14.7591964,21.324375 C14.945625,21.6040179 15.1336607,21.8828571 15.3216964,22.1616964 C15.9878571,23.1484821 16.6733036,24.1457143 17.3563393,25.1276786 C18.7304464,27.1004464 20.1383036,29.0563393 21.5413393,30.943125 C21.9101786,31.4397321 22.2814286,31.9347321 22.6550893,32.4297321 L22.685625,32.4691071 L22.69125,32.5197321 C22.753125,33.04125 22.5908036,33.463125 22.2211607,33.7371429 C22.03875,33.8721429 21.8410714,33.9741964 21.650625,34.0730357 C21.105,34.3558929 20.7980357,34.5423214 20.8422321,35.1192857 L20.8591071,35.3282143 L20.649375,35.3177679 C19.8032143,35.2783929 19.4327679,34.6588393 19.1065179,34.1116071 C18.8702679,33.71625 18.6460714,33.3385714 18.2627679,33.1674107 C18.3053571,33.55875 18.4676786,33.9115179 18.7489286,34.216875 C18.8646429,34.3430357 18.9908036,34.4603571 19.1241964,34.5841071 C19.3644643,34.8042857 19.6135714,35.0357143 19.7991964,35.3290179 C19.9679464,35.5958036 20.07,35.8979464 20.1013393,36.2258036 L20.1077679,36.2900893 L20.0732143,36.3447321 C20.0097321,36.4419643 19.8883929,36.4765179 19.7067857,36.5150893 C19.6738393,36.523125 19.6441071,36.5295536 19.625625,36.5351786 L19.5958929,36.545625 L19.7477679,36.9964286 L19.7148214,37.0647321 C19.6360714,37.2246429 19.603125,37.4086607 19.5685714,37.6007143 C19.5251786,37.8385714 19.4817857,38.0852679 19.35,38.3175 C19.2455357,38.5023214 19.1049107,38.6590179 18.9353571,38.7819643 C18.8413393,38.8510714 18.7360714,38.9105357 18.6211607,38.9603571 C18.5713393,38.9796429 18.5207143,38.9900893 18.4716964,38.9900893 L18.4716964,38.9900893 Z" id="Fill-22" fill="#1C263C"></path>
            <path d="M20.4725893,36.7963393 C20.413125,36.6171429 20.3544643,36.4403571 20.2941964,36.2619643 C20.2604464,36.1615179 20.5553571,35.7999107 20.615625,35.7075 C20.7498214,35.4985714 20.8936607,35.296875 21.054375,35.1088393 C21.6192857,34.441875 22.3746429,34.0674107 23.248125,34.0208036 C23.2473214,34.5391071 23.5084821,34.9079464 23.83875,35.28 C24.1826786,35.6713393 24.3964286,36.0763393 24.3586607,36.6115179 C24.136875,36.5665179 23.7680357,36.4009821 23.6089286,36.5785714 C23.518125,36.6790179 23.4265179,36.7802679 23.3373214,36.8823214 C23.1766071,37.0607143 22.7852679,36.8991964 22.53375,36.9425893 C21.9575893,37.0414286 21.5164286,37.4279464 20.986875,37.636875 C20.4348214,37.8538393 20.1166071,37.4616964 19.9165179,36.9811607 C20.1029464,36.9184821 20.2885714,36.8582143 20.4725893,36.7963393" id="Fill-23" fill="#616073"></path>
            <path d="M20.1728571,37.09125 C20.37375,37.4745536 20.604375,37.5886607 20.9201786,37.4649107 C21.1114286,37.3877679 21.2922321,37.2873214 21.481875,37.1820536 C21.7952679,37.006875 22.1175,36.826875 22.5040179,36.7609821 C22.6108929,36.7433036 22.7499107,36.75375 22.8776786,36.7682143 C22.95,36.77625 23.0183036,36.7834821 23.0785714,36.7834821 C23.1709821,36.7834821 23.1942857,36.7658036 23.1999107,36.759375 L23.4723214,36.4548214 C23.5550893,36.3616071 23.6740179,36.3125893 23.8242857,36.3125893 C23.9416071,36.3125893 24.0613393,36.3415179 24.1738393,36.3728571 C24.1457143,36.0401786 23.99625,35.7404464 23.7005357,35.4045536 C23.4257143,35.094375 23.1364286,34.7263393 23.0745536,34.2208929 C22.3336607,34.3036607 21.6859821,34.65 21.195,35.2285714 C21.0575893,35.3900893 20.919375,35.5797321 20.7707143,35.8079464 C20.7570536,35.8288393 20.7313393,35.8633929 20.7,35.9067857 C20.6533929,35.9710714 20.5151786,36.1575 20.4814286,36.2394643 L20.7064286,36.9136607 L20.1728571,37.09125 Z M20.6927679,37.884375 C20.2941964,37.884375 19.9759821,37.6039286 19.7477679,37.0534821 L19.670625,36.8694643 L20.23875,36.6798214 L20.1198214,36.3214286 C20.07,36.1751786 20.1624107,36.0128571 20.4026786,35.6874107 C20.4283929,35.6520536 20.4508929,35.6239286 20.4613393,35.6054464 C20.6180357,35.364375 20.7650893,35.1626786 20.91375,34.9883036 C21.5124107,34.2835714 22.3167857,33.885 23.2392857,33.834375 L23.4353571,33.8255357 L23.4353571,34.02 C23.4345536,34.4547321 23.641875,34.7777679 23.9777679,35.1578571 C24.4076786,35.6424107 24.5820536,36.095625 24.5442857,36.6235714 L24.5290179,36.8333036 L24.3225,36.7923214 C24.2710714,36.7802679 24.2091964,36.765 24.1449107,36.7465179 C24.0372321,36.7159821 23.9150893,36.6814286 23.8250893,36.6814286 C23.8066071,36.6814286 23.7624107,36.6830357 23.7479464,36.6999107 L23.4747321,37.0044643 C23.3429464,37.1523214 23.1428571,37.1523214 23.0777679,37.1523214 C22.9982143,37.1523214 22.9154464,37.1434821 22.8366964,37.1354464 C22.7346429,37.1241964 22.640625,37.1121429 22.5666964,37.125 C22.2420536,37.1796429 21.9616071,37.3379464 21.6626786,37.5042857 C21.4690179,37.6127679 21.2697321,37.7236607 21.0551786,37.8088393 C20.9298214,37.8586607 20.8076786,37.884375 20.6927679,37.884375 L20.6927679,37.884375 Z" id="Fill-24" fill="#1C263C"></path>
            <path d="M24.2975893,37.906875 C24.3924107,37.7847321 24.4864286,37.6633929 24.5820536,37.5420536 C24.6672321,37.4319643 24.6873214,37.3395536 24.8335714,37.36125 C25.0071429,37.3861607 25.1630357,37.4689286 25.2683036,37.6111607 C25.4900893,37.906875 25.486875,38.34 25.4860714,38.6919643 C25.4852679,38.9450893 25.4732143,39.1974107 25.47,39.4489286 C25.4683929,39.6377679 25.3936607,39.5807143 25.2313393,39.6184821 C25.1188393,39.6441964 25.0095536,39.6763393 24.9010714,39.7157143 C23.3284821,40.2774107 22.7057143,42.1400893 21.0286607,42.5346429 C20.8872321,41.7905357 20.3592857,41.3067857 19.8233036,40.8238393 C19.5798214,40.6036607 19.3395536,40.3754464 19.1555357,40.1030357 C19.0125,39.8916964 18.669375,39.3171429 18.9,39.1178571 C19.4825893,38.6188393 20.1969643,38.6558036 20.9121429,38.7458036 C21.6924107,38.8446429 22.4638393,38.9258036 23.2489286,38.8317857 C23.1669643,38.3560714 23.6016964,38.1551786 23.6185714,37.7204464 C23.8451786,37.7839286 24.0717857,37.8466071 24.2975893,37.906875" id="Fill-25" fill="#616073"></path>
            <path d="M20.1961607,38.8759821 C19.6979464,38.8759821 19.3242857,38.9965179 19.0205357,39.2584821 C18.9739286,39.2994643 19.0309821,39.58875 19.3090179,39.999375 C19.4882143,40.2645536 19.7316964,40.4927679 19.94625,40.6864286 C20.4235714,41.1155357 20.9579464,41.5992857 21.1628571,42.3048214 C21.8997321,42.0725893 22.4188393,41.5317857 22.966875,40.9604464 C23.5028571,40.3995536 24.0549107,39.8209821 24.8383929,39.5413393 C24.9508929,39.5003571 25.0690179,39.4658036 25.18875,39.4376786 C25.2241071,39.4296429 25.25625,39.425625 25.2851786,39.4224107 C25.2859821,39.3107143 25.2891964,39.2014286 25.2924107,39.0905357 C25.2964286,38.9571429 25.3004464,38.82375 25.30125,38.6903571 C25.3020536,38.3641071 25.3036607,37.9663393 25.1196429,37.7204464 C25.0304464,37.5999107 24.9002679,37.5573214 24.8070536,37.5452679 C24.80625,37.5452679 24.80625,37.5436607 24.80625,37.5436607 C24.7974107,37.5541071 24.7885714,37.5677679 24.7805357,37.5798214 C24.7644643,37.603125 24.7475893,37.6288393 24.7275,37.6545536 L24.3691071,38.1182143 L23.7640179,37.9526786 C23.720625,38.0892857 23.6491071,38.2041964 23.5840179,38.3094643 C23.4795536,38.4758036 23.3983929,38.6075893 23.4321429,38.7996429 L23.4658929,38.9916964 L23.270625,39.0158036 C23.0319643,39.043125 22.7852679,39.0567857 22.5208929,39.0567857 C21.9583929,39.0567857 21.4055357,38.9933036 20.8896429,38.9274107 C20.6807143,38.9033036 20.435625,38.8759821 20.1961607,38.8759821 Z M20.8824107,42.7580357 L20.84625,42.5691964 C20.7144643,41.8765179 20.1985714,41.41125 19.69875,40.9620536 C19.468125,40.753125 19.2045536,40.5064286 19.0020536,40.2066964 C18.7746429,39.8716071 18.4451786,39.2649107 18.7802679,38.9780357 C19.1539286,38.6574107 19.6039286,38.5071429 20.1961607,38.5071429 C20.4557143,38.5071429 20.7152679,38.5352679 20.9346429,38.5617857 C21.4392857,38.6260714 21.9784821,38.68875 22.5200893,38.68875 C22.7065179,38.68875 22.8825,38.6815179 23.0544643,38.6670536 C23.0689286,38.4372321 23.1774107,38.2604464 23.2698214,38.115 C23.3533929,37.9783929 23.4273214,37.8610714 23.4345536,37.7148214 L23.4433929,37.4825893 L24.226875,37.6963393 L24.4366071,37.42875 C24.4510714,37.4102679 24.463125,37.389375 24.4751786,37.3741071 C24.5282143,37.29375 24.6101786,37.1748214 24.7933929,37.1748214 C24.8134821,37.1748214 24.8375893,37.1764286 24.8608929,37.1796429 C25.0899107,37.2141964 25.2867857,37.3275 25.4161607,37.4994643 C25.6749107,37.845 25.6716964,38.3126786 25.6700893,38.6879464 C25.6692857,38.8301786 25.6660714,38.9667857 25.6620536,39.1025893 C25.6588393,39.2199107 25.6548214,39.335625 25.6540179,39.4521429 C25.6516071,39.7253571 25.4933036,39.774375 25.3550893,39.7880357 C25.3325893,39.79125 25.3052679,39.7928571 25.2723214,39.8000893 C25.1654464,39.8258036 25.0609821,39.8555357 24.9613393,39.8916964 C24.2614286,40.1416071 23.7616071,40.6639286 23.2328571,41.2167857 C22.6309821,41.8451786 22.0090179,42.4952679 21.0688393,42.7146429 L20.8824107,42.7580357 L20.8824107,42.7580357 Z" id="Fill-26" fill="#1C263C"></path>
            <path d="M38.0539286,35.5017857 C36.8734821,35.1658929 36.2241964,34.1477679 35.7203571,33.103125 C35.5861607,32.8258929 35.4591964,32.5470536 35.3258036,32.2682143 C35.251875,32.1115179 35.1739286,31.9548214 35.0935714,31.8005357 C35.2446429,31.6816071 35.3973214,31.561875 35.5491964,31.4445536 C36.1591071,30.9688393 36.7690179,30.4963393 37.3789286,30.0238393 C39.7398214,28.1965179 42.0999107,26.3659821 44.3458929,24.3972321 C44.814375,25.3430357 44.8127679,26.5427679 44.7926786,27.5721429 C44.7685714,28.7325 44.6673214,29.9394643 44.3458929,31.0596429 C43.3671429,30.740625 42.3763393,30.4425 42.4952679,29.2098214 C41.8363393,29.3777679 41.2216071,29.7610714 40.9773214,30.4224107 C40.6719643,31.2452679 40.9749107,32.1814286 41.3847321,32.9110714 C39.7076786,33.035625 39.6610714,35.2711607 38.0539286,35.5017857" id="Fill-27" fill="#616073"></path>
            <path d="M35.3274107,31.8527679 C35.3836607,31.9636607 35.4383036,32.0753571 35.4921429,32.1886607 C35.5508036,32.3091964 35.6070536,32.4297321 35.6633036,32.551875 C35.7364286,32.7085714 35.8103571,32.8660714 35.8858929,33.0219643 C36.3415179,33.9677679 36.9578571,34.9786607 38.0667857,35.3113393 C38.7466071,35.1972321 39.1178571,34.666875 39.5108036,34.104375 C39.915,33.5274107 40.33125,32.9303571 41.0986607,32.765625 C40.8021429,32.1677679 40.4807143,31.2291964 40.80375,30.358125 C41.0432143,29.7120536 41.6266071,29.2411607 42.4510714,29.030625 L42.705,28.9655357 L42.6800893,29.2275 C42.5828571,30.2416071 43.3261607,30.5300893 44.2189286,30.8241964 C44.4567857,29.9201786 44.5797321,28.8795536 44.60625,27.568125 C44.6279464,26.5741071 44.6166964,25.5423214 44.2791964,24.7017857 C42.0565179,26.6351786 39.7382143,28.4319643 37.4930357,30.1700893 L37.3467857,30.2833929 C36.7850893,30.718125 36.2241964,31.1544643 35.6625,31.5908036 L35.3274107,31.8527679 Z M38.0410714,35.6898214 L38.0041071,35.6785714 C36.7296429,35.3169643 36.0490179,34.2144643 35.5524107,33.1826786 C35.4752679,33.0267857 35.4013393,32.8660714 35.3274107,32.7077679 C35.2719643,32.5888393 35.2149107,32.4675 35.1586607,32.3477679 C35.0847321,32.1934821 35.0075893,32.0383929 34.9288393,31.8857143 L34.8573214,31.7491071 L35.4350893,31.2966964 C35.9951786,30.85875 36.5576786,30.4240179 37.1201786,29.9892857 L37.2664286,29.8767857 C39.5710714,28.0920536 41.9536607,26.24625 44.2253571,24.2582143 L44.4053571,24.0991071 L44.5130357,24.3160714 C44.9839286,25.2666964 45.0008036,26.4471429 44.9775,27.5753571 C44.9477679,29.0105357 44.8039286,30.1347321 44.5258929,31.1102679 L44.4728571,31.2950893 L44.2317857,31.2155357 C43.3382143,30.9246429 42.3329464,30.5959821 42.3024107,29.4605357 C41.8966071,29.6035714 41.3694643,29.8976786 41.1516964,30.4850893 C40.8342857,31.3416964 41.2641964,32.3140179 41.5478571,32.8178571 L41.6908929,33.0701786 L41.4008036,33.0926786 C40.629375,33.1505357 40.2340179,33.7154464 39.8161607,34.3141071 C39.3878571,34.9264286 38.9450893,35.5588393 38.08125,35.6817857 L38.0410714,35.6898214 L38.0410714,35.6898214 Z" id="Fill-28" fill="#1C263C"></path>
            <path d="M29.1704464,25.8774107 C30.9953571,27.1880357 32.2400893,29.0941071 33.7098214,30.7550893 C33.7982143,30.8571429 33.8898214,30.9591964 33.9830357,31.0596429 C33.9155357,31.1665179 33.8448214,31.2725893 33.7725,31.3770536 C33.6294643,31.5827679 33.4791964,31.7836607 33.3208929,31.978125 C32.9809821,32.3967857 32.6097321,32.788125 32.2191964,33.1601786 C31.4533929,33.8882143 30.6176786,34.5391071 29.7883929,35.1932143 C28.9309821,35.8722321 28.074375,36.556875 27.3085714,37.3411607 C27.2177679,37.4335714 27.1269643,37.5283929 27.0385714,37.6248214 C26.91,37.7646429 26.8963393,37.6907143 26.7629464,37.5854464 C26.5861607,37.4464286 26.4254464,37.2857143 26.2832143,37.1121429 C25.9545536,36.714375 25.7166964,36.2499107 25.5085714,35.780625 C25.2867857,35.2832143 25.0971429,34.7705357 24.8600893,34.27875 C24.6109821,33.7644643 24.2823214,33.2951786 23.9649107,32.8226786 C23.6820536,32.4032143 23.4048214,31.9773214 23.1975,31.5152679 C23.0970536,31.2902679 23.0126786,31.0564286 22.9564286,30.8185714 C22.9283036,30.695625 22.9058036,30.5710714 22.8905357,30.4465179 C22.8664286,30.2424107 23.0761607,30.2158929 23.2408929,30.1275 C25.3888393,28.974375 27.4275,27.5898214 29.1704464,25.8774107" id="Fill-29" fill="#616073"></path>
            <path d="M29.188125,26.1192857 C27.5874107,27.6701786 25.6676786,29.0346429 23.3300893,30.2890179 C23.2875,30.313125 23.2425,30.3316071 23.1991071,30.3508929 C23.1565179,30.3677679 23.0858036,30.3983036 23.0721429,30.4167857 C23.0890179,30.5405357 23.1099107,30.6578571 23.1380357,30.774375 C23.1878571,30.988125 23.2658036,31.2115179 23.3678571,31.438125 C23.5679464,31.8857143 23.8379464,32.2979464 24.1191964,32.7182143 L24.2196429,32.8660714 C24.5049107,33.28875 24.7998214,33.7250893 25.0280357,34.1991964 C25.1726786,34.4957143 25.2988393,34.8042857 25.4217857,35.1032143 C25.5061607,35.3057143 25.5889286,35.5066071 25.6789286,35.7075 C25.8492857,36.0908036 26.0879464,36.5841964 26.42625,36.9948214 C26.5652679,37.164375 26.7179464,37.3146429 26.8778571,37.4416071 C26.8947321,37.4536607 26.9083929,37.4665179 26.9220536,37.479375 C27.005625,37.3877679 27.0908036,37.2977679 27.1767857,37.2109821 C27.9305357,36.4403571 28.7541964,35.7758036 29.6734821,35.0485714 L29.8285714,34.9272321 C30.5903571,34.3253571 31.3786607,33.7041964 32.0914286,33.0267857 C32.5100893,32.6290179 32.8636607,32.248125 33.1778571,31.8632143 C33.33375,31.6695536 33.4840179,31.4710714 33.620625,31.2725893 C33.6648214,31.2099107 33.7066071,31.1464286 33.75,31.0821429 C33.6897321,31.0146429 33.6294643,30.94875 33.57,30.88125 C33.1497321,30.4047321 32.7423214,29.9016964 32.3469643,29.4163393 C31.3971429,28.2423214 30.414375,27.0329464 29.188125,26.1192857 Z M26.9252679,37.8867857 C26.8232143,37.8867857 26.7573214,37.8273214 26.7050893,37.7807143 C26.6890179,37.7654464 26.6705357,37.749375 26.6496429,37.7308929 C26.4664286,37.5870536 26.2960714,37.4191071 26.139375,37.2294643 C25.7745536,36.7834821 25.5198214,36.2619643 25.3398214,35.8561607 C25.2498214,35.6536607 25.1646429,35.4479464 25.0802679,35.2422321 C24.9589286,34.9505357 24.8327679,34.6459821 24.6945536,34.3583036 C24.4775893,33.9083036 24.1907143,33.4840179 23.9126786,33.0717857 L23.8122321,32.923125 C23.5213393,32.49 23.2416964,32.0608929 23.0295536,31.5891964 C22.9178571,31.3392857 22.8334821,31.0941964 22.7772321,30.8571429 C22.7466964,30.7285714 22.7233929,30.5967857 22.708125,30.4666071 C22.6735714,30.1708929 22.9210714,30.065625 23.0544643,30.0085714 C23.0882143,29.9941071 23.1227679,29.9804464 23.1549107,29.9627679 C25.5174107,28.6939286 27.4427679,27.3133929 29.0426786,25.7440179 L29.154375,25.6339286 L29.2805357,25.7255357 C30.605625,26.6777679 31.6390179,27.9490179 32.63625,29.1800893 C33.0283929,29.6622321 33.4341964,30.1620536 33.8504464,30.6321429 C33.9388393,30.7333929 34.0296429,30.8330357 34.1204464,30.9326786 L34.2176786,31.0371429 L34.1405357,31.156875 C34.0714286,31.2661607 33.9999107,31.3738393 33.9267857,31.4799107 C33.7845536,31.6864286 33.6294643,31.8921429 33.4663393,32.0922321 C33.1441071,32.4916071 32.7784821,32.8829464 32.3485714,33.2919643 C31.62375,33.980625 30.8274107,34.6082143 30.0583929,35.2141071 L29.9049107,35.3370536 C28.9944643,36.0554464 28.1804464,36.7119643 27.4427679,37.4673214 C27.3527679,37.5589286 27.2627679,37.6529464 27.1759821,37.7477679 C27.1133036,37.8176786 27.03375,37.8867857 26.9252679,37.8867857 L26.9252679,37.8867857 Z" id="Fill-30" fill="#1C263C"></path>
            <path d="M19.5484821,44.3828571 C18.9369643,44.7669643 18.1470536,44.8071429 17.4463393,44.8135714 C16.5905357,44.8224107 15.7363393,44.7460714 14.8821429,44.7147321 C14.4980357,44.7002679 14.113125,44.6946429 13.7282143,44.7147321 C13.5160714,44.7251786 13.2958929,44.825625 13.185,44.62875 C13.0652679,44.420625 12.9455357,44.2133036 12.8258036,44.0083929 C12.3460714,43.1823214 11.8550893,42.3650893 11.3625,41.5470536 C9.52071429,38.4926786 7.655625,35.443125 6.22366071,32.1701786 C6.99107143,32.056875 7.67973214,31.7282143 8.32660714,31.3127679 C8.701875,31.0716964 9.06348214,30.8121429 9.44678571,30.583125 C9.61232143,30.4826786 9.86223214,30.2504464 10.0076786,30.40875 C10.1458929,30.5590179 10.2816964,30.7149107 10.4150893,30.8691964 C11.5738393,32.2159821 12.5799107,33.6889286 13.5425893,35.1795536 C15.5274107,38.2540179 17.308125,41.4803571 19.5484821,44.3828571" id="Fill-31" fill="#616073"></path>
            <path d="M14.248125,44.51625 C14.4385714,44.51625 14.6426786,44.5210714 14.8885714,44.5299107 C15.1875,44.5419643 15.485625,44.5572321 15.7845536,44.5749107 C16.2867857,44.6014286 16.8075,44.6295536 17.3161607,44.6295536 L17.4439286,44.6295536 C18.0466071,44.623125 18.7240179,44.5925893 19.2696429,44.3266071 C17.7766071,42.3666964 16.4675893,40.2388393 15.2003571,38.1808929 C14.6121429,37.2254464 14.0038393,36.2378571 13.3875,35.28 C12.5260714,33.9476786 11.4838393,32.3951786 10.2752679,30.9905357 C10.1442857,30.8394643 10.0116964,30.6891964 9.87669643,30.5413393 C9.82366071,30.5501786 9.71357143,30.6249107 9.6525,30.6666964 C9.613125,30.6940179 9.57616071,30.7197321 9.54241071,30.740625 C9.309375,30.8796429 9.07955357,31.0339286 8.85696429,31.1841964 C8.71392857,31.2790179 8.57089286,31.3746429 8.42625,31.4678571 C7.73758929,31.9114286 7.11482143,32.1830357 6.48723214,32.3116071 C7.84285714,35.3611607 9.59705357,38.2660714 11.2941964,41.0761607 L11.52,41.4514286 C11.9941071,42.238125 12.4995536,43.0786607 12.9857143,43.9135714 C13.1054464,44.1208929 13.2251786,44.3290179 13.3441071,44.5363393 C13.3561607,44.555625 13.3601786,44.5636607 13.4075893,44.5636607 C13.4461607,44.5636607 13.4951786,44.555625 13.5474107,44.5483929 C13.6036607,44.5403571 13.6615179,44.5315179 13.7177679,44.5291071 C13.8857143,44.5210714 14.0600893,44.51625 14.248125,44.51625 Z M17.3161607,45 C16.7970536,45 16.2723214,44.9710714 15.7652679,44.94375 C15.46875,44.926875 15.1714286,44.9124107 14.8749107,44.9003571 C14.3975893,44.8834821 14.0625,44.8834821 13.7370536,44.8995536 C13.6928571,44.9019643 13.6470536,44.9091964 13.6028571,44.915625 C13.5401786,44.9244643 13.4742857,44.9349107 13.4083929,44.9349107 C13.2340179,44.9349107 13.1046429,44.8625893 13.0242857,44.7203571 C12.9053571,44.5138393 12.7864286,44.3065179 12.6658929,44.1 C12.1829464,43.2675 11.6783036,42.4269643 11.2041964,41.6426786 L10.9783929,41.2674107 C9.23544643,38.3801786 7.43223214,35.3941071 6.05410714,32.2441071 L5.956875,32.0223214 L6.19553571,31.9877679 C6.85044643,31.8921429 7.49651786,31.6261607 8.22535714,31.156875 C8.36919643,31.0652679 8.50982143,30.97125 8.65044643,30.875625 C8.87625,30.72375 9.11008929,30.5670536 9.35035714,30.4224107 C9.37848214,30.4063393 9.40982143,30.3854464 9.44357143,30.3629464 C9.57455357,30.2729464 9.72241071,30.1708929 9.88473214,30.1708929 C9.98517857,30.1708929 10.0751786,30.2110714 10.1434821,30.2858036 C10.2816964,30.4376786 10.4191071,30.5935714 10.5541071,30.7494643 C11.7771429,32.1717857 12.8290179,33.7371429 13.696875,35.0807143 C14.3164286,36.0401786 14.9263393,37.0301786 15.5145536,37.9872321 C16.8139286,40.0982143 18.1575,42.2799107 19.6939286,44.2719643 L19.8192857,44.4334821 L19.6457143,44.5419643 C18.9932143,44.9509821 18.1695536,44.9935714 17.4479464,45 L17.3161607,45 L17.3161607,45 Z" id="Fill-32" fill="#1C263C"></path>
            <path d="M33.9838393,44.0140179 C34.0641964,43.1083929 33.4277679,42.7596429 32.6491071,42.5724107 C32.2264286,42.46875 31.7659821,42.3996429 31.3923214,42.1625893 C31.0315179,42.5057143 31.1986607,42.9380357 31.3208036,43.3502679 C31.4445536,43.7673214 31.5032143,44.19 31.42125,44.6215179 C31.3778571,44.8505357 31.021875,44.7741964 30.8161607,44.7613393 C30.5871429,44.7476786 30.3589286,44.7099107 30.1395536,44.6408036 C29.4541071,44.4222321 28.98,43.8958929 28.6633929,43.2707143 C28.2238393,42.40125 28.040625,41.428125 27.6420536,40.5409821 C27.5504464,40.3336607 27.4451786,40.1327679 27.3214286,39.943125 C27.4628571,39.7277679 27.6139286,39.5196429 27.7722321,39.3155357 C28.1113393,38.8808036 28.4858036,38.4709821 28.8763393,38.0820536 C30.4111607,36.5584821 32.2336607,35.330625 33.615,33.6511607 C36.4411607,37.1852679 39.4473214,40.6261607 41.3871429,44.7549107 C39.043125,44.7549107 36.6983036,44.7549107 34.3542857,44.7549107 C34.38,44.6801786 34.5720536,44.263125 34.5391071,44.1996429 C34.5061607,44.1353571 34.0561607,44.0397321 33.9838393,44.0140179" id="Fill-33" fill="#616073"></path>
            <path d="M27.5408036,39.9455357 C27.6348214,40.0998214 27.7240179,40.269375 27.8108036,40.4638393 C27.995625,40.8776786 28.1354464,41.3108036 28.27125,41.7294643 C28.4295536,42.2180357 28.5934821,42.7242857 28.828125,43.1847321 C29.1648214,43.8525 29.6252679,44.2824107 30.195,44.4624107 C30.38625,44.5226786 30.5991964,44.56125 30.8258036,44.5765179 C30.85875,44.578125 30.8949107,44.5821429 30.9342857,44.5853571 C30.9945536,44.5917857 31.0604464,44.5990179 31.123125,44.5990179 C31.2179464,44.5990179 31.2420536,44.5821429 31.2428571,44.5821429 C31.3055357,44.2277679 31.2741964,43.8508929 31.1416071,43.4041071 L31.1150893,43.3141071 C30.9945536,42.9195536 30.8442857,42.4277679 31.26375,42.0291964 L31.3690179,41.9303571 L31.4895536,42.0066964 C31.77,42.1842857 32.11875,42.2630357 32.4570536,42.3377679 C32.5358036,42.3554464 32.61375,42.3739286 32.6916964,42.3924107 C33.3409821,42.5491071 34.1823214,42.87375 34.1742857,43.8733929 C34.5350893,43.9666071 34.6516071,44.0124107 34.7022321,44.1160714 C34.7496429,44.2076786 34.7279464,44.3113393 34.6258929,44.5692857 L41.090625,44.5692857 C39.425625,41.1316071 36.9875893,38.120625 34.6275,35.206875 C34.2867857,34.7858036 33.946875,34.3655357 33.6077679,33.9428571 C32.7921429,34.8975 31.8326786,35.7147321 30.90375,36.5078571 C30.2665179,37.051875 29.6059821,37.6159821 29.0041071,38.2138393 C28.5838393,38.6308929 28.2270536,39.0278571 27.916875,39.4280357 C27.7858929,39.5975893 27.658125,39.7719643 27.5408036,39.9455357 Z M31.1239286,44.9694643 C31.0459821,44.9694643 30.9680357,44.9614286 30.8989286,44.9541964 C30.8651786,44.9509821 30.8330357,44.9477679 30.8049107,44.9453571 C30.5469643,44.9292857 30.3042857,44.8850893 30.0841071,44.8159821 C29.4155357,44.6046429 28.8819643,44.1120536 28.4978571,43.3526786 C28.2519643,42.8673214 28.0824107,42.3458036 27.9208929,41.8435714 C27.7883036,41.4345536 27.6508929,41.0102679 27.4725,40.6165179 C27.3736607,40.3963393 27.2732143,40.2083036 27.1655357,40.0435714 L27.0988393,39.9423214 L27.1655357,39.8410714 C27.3069643,39.6265179 27.46125,39.4111607 27.624375,39.200625 C27.9458036,38.7883929 28.3114286,38.3785714 28.7445536,37.9502679 C29.356875,37.3427679 30.0214286,36.7746429 30.6650893,36.225 C31.6390179,35.3941071 32.6450893,34.5350893 33.4695536,33.5322321 L33.6158036,33.3554464 L33.7572321,33.5330357 C34.1421429,34.014375 34.5294643,34.4925 34.9175893,34.9714286 C37.35,37.9767857 39.8667857,41.085 41.5526786,44.6753571 L41.6764286,44.938125 L34.0963393,44.938125 L34.1783036,44.6946429 C34.1847321,44.6753571 34.2016071,44.6303571 34.2249107,44.5765179 C34.2498214,44.5178571 34.3020536,44.3916964 34.3325893,44.3000893 C34.2409821,44.2719643 34.1075893,44.2366071 34.0465179,44.2197321 C33.9894643,44.2060714 33.9460714,44.1948214 33.9259821,44.1883929 L33.7861607,44.1417857 L33.7998214,43.9955357 C33.8592857,43.3301786 33.5153571,42.969375 32.608125,42.7491964 C32.5317857,42.7323214 32.4554464,42.7130357 32.3783036,42.6977679 C32.0600893,42.6254464 31.7338393,42.5515179 31.4349107,42.3980357 C31.3015179,42.6053571 31.3633929,42.8496429 31.4726786,43.2048214 L31.5,43.2948214 C31.6478571,43.7946429 31.6816071,44.2390179 31.6044643,44.6528571 C31.5795536,44.7741964 31.48875,44.9694643 31.1239286,44.9694643 L31.1239286,44.9694643 Z" id="Fill-34" fill="#1C263C"></path>
            <path d="M42.1248214,33.6503571 C42.8207143,33.75 42.9107143,34.66125 43.6058036,34.7608929 C43.2546429,35.6986607 42.1979464,35.9654464 41.47875,36.534375 C41.1991071,36.7553571 41.6282143,37.4311607 41.8025893,37.6489286 C42.1119643,38.030625 42.5274107,38.3175 42.8014286,38.728125 C42.958125,38.9635714 43.5133929,39.0865179 43.7367857,38.84625 C43.9296429,38.6405357 43.9167857,38.3014286 43.9963393,38.0475 C44.1048214,37.7003571 44.3844643,37.6336607 44.7155357,37.7220536 C44.7155357,38.30625 44.7155357,38.8888393 44.7155357,39.4722321 C44.7155357,39.7414286 44.7155357,40.010625 44.7155357,40.2798214 C44.7155357,40.4140179 44.7155357,40.5490179 44.7155357,40.6840179 C44.5700893,40.6840179 44.4254464,40.6840179 44.2791964,40.6840179 C43.6491964,40.6840179 43.02,40.6840179 42.3891964,40.6840179 C41.8066071,40.6840179 41.225625,40.6840179 40.6446429,40.6840179 C40.2525,40.3023214 39.9383036,39.8539286 39.6498214,39.391875 C39.0953571,38.5007143 38.6284821,37.5211607 37.8666964,36.7802679 C37.7509821,36.6685714 37.6360714,36.6653571 37.7574107,36.5183036 C37.83375,36.4275 37.9133036,36.3399107 37.9992857,36.2555357 C38.1680357,36.0851786 38.3504464,35.9325 38.5433036,35.7902679 C38.9732143,35.4736607 39.4441071,35.2165179 39.9166071,34.9698214 C40.6767857,34.5704464 41.4626786,34.2008036 42.1248214,33.6503571" id="Fill-35" fill="#616073"></path>
            <path d="M40.7209821,40.4967857 L44.5315179,40.4967857 L44.5315179,37.8739286 C44.3386607,37.8554464 44.2301786,37.9213393 44.1723214,38.1021429 C44.150625,38.1720536 44.1361607,38.2540179 44.1208929,38.3424107 C44.083125,38.5545536 44.0405357,38.7924107 43.8717857,38.9716071 C43.7584821,39.0921429 43.5833036,39.1596429 43.3775893,39.1596429 C43.07625,39.1596429 42.7765179,39.0238393 42.6471429,38.8285714 C42.5025,38.6116071 42.3144643,38.4308036 42.114375,38.23875 C41.9592857,38.0892857 41.799375,37.9374107 41.6595536,37.7638393 C41.6539286,37.7566071 41.1549107,37.1330357 41.2055357,36.68625 C41.22,36.5625 41.2738393,36.4596429 41.3638393,36.388125 C41.6016964,36.2008929 41.8733036,36.0441964 42.1352679,35.8947321 C42.6278571,35.6110714 43.0971429,35.3426786 43.3486607,34.8798214 C43.0666071,34.7641071 42.8858036,34.5302679 42.7210714,34.318125 C42.553125,34.1019643 42.4044643,33.9115179 42.1754464,33.8488393 C41.608125,34.3028571 40.9588393,34.6379464 40.3296429,34.9633929 C40.2211607,35.0188393 40.1126786,35.0742857 40.0058036,35.1313393 C39.5791071,35.3539286 39.088125,35.6175 38.6541964,35.938125 C38.4557143,36.0851786 38.2845536,36.230625 38.1326786,36.3833036 C38.0627679,36.4524107 37.9976786,36.5239286 37.9374107,36.5946429 C37.9566964,36.6099107 37.9775893,36.6267857 37.9984821,36.6460714 C38.593125,37.2254464 39.0125893,37.9438393 39.4183929,38.6373214 C39.5469643,38.8566964 39.6763393,39.0784821 39.8105357,39.2930357 C40.0323214,39.6530357 40.3352679,40.1086607 40.7209821,40.4967857 Z M44.9011607,40.8672321 L40.5691071,40.8672321 L40.5152679,40.8158036 C40.0765179,40.3891071 39.7390179,39.8820536 39.4939286,39.4899107 C39.358125,39.2713393 39.2279464,39.04875 39.0977679,38.82375 C38.705625,38.1527679 38.2990179,37.456875 37.7389286,36.9128571 C37.7172321,36.8911607 37.6947321,36.8750893 37.6746429,36.860625 C37.6208036,36.82125 37.5380357,36.7609821 37.524375,36.6484821 C37.5107143,36.5424107 37.5701786,36.4564286 37.6159821,36.4001786 C37.6939286,36.3069643 37.7775,36.21375 37.8691071,36.1229464 C38.0354464,35.9566071 38.2202679,35.7991071 38.4348214,35.64 C38.8880357,35.3057143 39.3934821,35.0325 39.8314286,34.8034821 C39.9415179,34.7464286 40.0491964,34.6901786 40.1584821,34.6339286 C40.7957143,34.3052679 41.4538393,33.9669643 42.0066964,33.508125 L42.069375,33.4558929 L42.1521429,33.4671429 C42.5724107,33.5290179 42.8054464,33.82875 43.0111607,34.0923214 C43.1967857,34.3325893 43.3591071,34.5391071 43.6307143,34.576875 L43.8597321,34.6098214 L43.7777679,34.8259821 C43.5125893,35.5307143 42.9050893,35.8794643 42.3184821,36.2153571 C42.0557143,36.3664286 41.8074107,36.5078571 41.5920536,36.6790179 C41.5864286,36.6830357 41.5751786,36.6926786 41.5719643,36.7280357 C41.5510714,36.9200893 41.7800893,37.3250893 41.9472321,37.5316071 C42.0717857,37.6858929 42.2172321,37.8257143 42.3691071,37.9727679 C42.5748214,38.1696429 42.7885714,38.3745536 42.9557143,38.6244643 C43.0079464,38.705625 43.1911607,38.7908036 43.3767857,38.7908036 C43.4772321,38.7908036 43.56,38.7642857 43.6009821,38.7192857 C43.695,38.6204464 43.7247321,38.4541071 43.7552679,38.2773214 C43.7713393,38.1825 43.7898214,38.0852679 43.8179464,37.9904464 C43.9457143,37.5854464 44.2928571,37.4166964 44.76375,37.5436607 L44.9011607,37.5798214 L44.9011607,40.8672321 L44.9011607,40.8672321 Z" id="Fill-36" fill="#1C263C"></path>
            <g id="Group-40" transform="translate(0.000000, 34.553571)">
                <mask id="mask-4" fill="white">
                    <use xlink:href="#path-3"></use>
                </mask>
                <g id="Clip-38"></g>
                <path d="M1.040625,0.577767857 C4.02428571,3.00375 5.18303571,6.93883929 6.96375,10.2013393 C5.48598214,10.2013393 4.00741071,10.2013393 2.52964286,10.2013393 C2.19616071,10.2013393 1.86267857,10.2013393 1.52839286,10.2013393 C1.33875,10.2013393 1.14669643,10.2013393 0.95625,10.2013393 C0.724017857,10.2013393 0.678214286,10.2479464 0.635625,10.0157143 C0.521517857,9.41544643 0.437946429,8.80875 0.370446429,8.20125 C0.21375,6.79660714 0.138214286,5.37267857 0.215357143,3.96160714 C0.275625,2.85107143 0.375267857,1.51633929 1.040625,0.577767857" id="Fill-37" fill="#616073" mask="url(#mask-4)"></path>
                <path d="M1.08160714,0.852589286 C0.564910714,1.704375 0.460446429,2.85669643 0.400982143,3.97044643 C0.331071429,5.248125 0.380892857,6.62544643 0.553660714,8.18035714 C0.627589286,8.84651786 0.713571429,9.43553571 0.816428571,9.98116071 C0.819642857,9.995625 0.822053571,10.0084821 0.824464286,10.0197321 C0.834107143,10.0197321 0.842142857,10.0197321 0.851785714,10.018125 C0.882321429,10.0173214 0.916875,10.0157143 0.95625,10.0157143 L6.65357143,10.0157143 C6.226875,9.20892857 5.8275,8.35714286 5.44017857,7.53026786 C4.303125,5.10267857 3.12830357,2.593125 1.08160714,0.852589286 Z M0.800357143,10.3901786 C0.55125,10.3901786 0.486160714,10.2270536 0.453214286,10.0494643 C0.34875,9.495 0.262767857,8.89553571 0.186428571,8.22053571 C0.0104464286,6.64553571 -0.039375,5.248125 0.0313392857,3.95035714 C0.0988392857,2.70803571 0.219375,1.41589286 0.889553571,0.470892857 L1.00446429,0.310982143 L1.15714286,0.433928571 C3.36776786,2.22991071 4.59160714,4.84473214 5.77526786,7.37357143 C6.20357143,8.28803571 6.64714286,9.23544643 7.12607143,10.1121429 L7.27473214,10.3861607 L0.95625,10.3861607 C0.921696429,10.3861607 0.891160714,10.3869643 0.86625,10.3885714 C0.840535714,10.3901786 0.818839286,10.3901786 0.800357143,10.3901786 L0.800357143,10.3901786 Z" id="Fill-39" fill="#1C263C" mask="url(#mask-4)"></path>
            </g>
            <path d="M25.47,40.6832143 C25.6540179,40.6832143 25.8396429,40.6832143 26.0244643,40.6832143 C26.1176786,40.6832143 26.2100893,40.6832143 26.3025,40.6832143 C26.49375,40.6832143 26.5620536,40.6165179 26.6150893,40.8214286 C26.7291964,41.2722321 26.8625893,41.7190179 26.9991964,42.1658036 C27.2603571,43.0191964 27.5263393,43.875 27.6910714,44.7549107 C26.2108929,44.7549107 24.7291071,44.7549107 23.2489286,44.7549107 C23.6177679,43.1750893 25.2924107,42.3586607 25.47,40.6832143" id="Fill-41" fill="#616073"></path>
            <path d="M23.4932143,44.5692857 L27.4652679,44.5692857 C27.309375,43.813125 27.0803571,43.0633929 26.8561607,42.3369643 L26.8208036,42.2188393 C26.6970536,41.8138393 26.5548214,41.3413393 26.4350893,40.865625 C26.4342857,40.8648214 26.4334821,40.8632143 26.4334821,40.86 C26.4326786,40.86 26.4310714,40.86 26.4302679,40.86 C26.3941071,40.8648214 26.3515179,40.8672321 26.3025,40.8672321 L25.6315179,40.8672321 C25.4884821,41.7294643 24.9774107,42.3699107 24.48,42.9894643 C24.0741964,43.4965179 23.6884821,43.9786607 23.4932143,44.5692857 Z M27.9136607,44.9397321 L23.0150893,44.9397321 L23.0689286,44.713125 C23.2505357,43.9328571 23.7286607,43.3366071 24.1907143,42.7580357 C24.7090179,42.1119643 25.1967857,41.5028571 25.2851786,40.6639286 L25.3020536,40.4983929 L26.3016964,40.4983929 C26.3378571,40.4983929 26.3691964,40.4959821 26.3957143,40.4927679 C26.42625,40.4895536 26.4527679,40.4879464 26.4784821,40.4879464 C26.7203571,40.4879464 26.775,40.7041071 26.7934821,40.775625 C26.9124107,41.2433036 27.0530357,41.7101786 27.1751786,42.1103571 L27.2105357,42.2276786 C27.4580357,43.0352679 27.7135714,43.8701786 27.871875,44.7203571 L27.9136607,44.9397321 L27.9136607,44.9397321 Z" id="Fill-42" fill="#1C263C"></path>
            <path d="M44.7163393,5.52133929 C44.7163393,6.24133929 44.7163393,6.96053571 44.7163393,7.68053571 C44.7163393,7.86375 44.8007143,8.09758929 44.5998214,8.11848214 C44.4680357,8.13214286 44.3410714,8.17151786 44.2301786,8.24223214 C44.0308929,8.36839286 43.903125,8.57008929 43.7649107,8.75491071 C43.6508036,8.90678571 43.5238393,9.05303571 43.3502679,9.13741071 C43.2345536,9.19366071 43.1083929,9.22017857 42.9814286,9.22419643 C42.8094643,9.22982143 42.7411607,9.08598214 42.6407143,8.960625 C42.249375,8.47366071 41.9271429,7.92241071 41.70375,7.33821429 C41.4321429,6.62705357 41.1870536,5.56875 41.7865179,4.944375 C42.4229464,4.27982143 43.5833036,4.54741071 44.3458929,4.78044643 C44.3217857,4.854375 44.1297321,5.27223214 44.161875,5.33571429 C44.1940179,5.39919643 44.6424107,5.49642857 44.7163393,5.52133929" id="Fill-43" fill="#616073"></path>
            <path d="M42.94125,4.70973214 C42.4888393,4.70973214 42.1545536,4.82785714 41.9207143,5.07214286 C41.3694643,5.64508929 41.6563393,6.69616071 41.8765179,7.27071429 C42.091875,7.83401786 42.3964286,8.36276786 42.7845536,8.84330357 C42.8030357,8.86741071 42.823125,8.893125 42.84,8.91723214 C42.9139286,9.016875 42.9364286,9.03776786 42.9701786,9.03776786 L42.9701786,9.22258929 L42.9741964,9.03776786 C43.0850893,9.03455357 43.183125,9.01125 43.2675,8.97026786 C43.4105357,8.90035714 43.5182143,8.77178571 43.6154464,8.64321429 L43.6765179,8.55964286 C43.7954464,8.39571429 43.93125,8.21008929 44.1305357,8.08473214 C44.2526786,8.00598214 44.3949107,7.95616071 44.5483929,7.93607143 C44.5475893,7.90473214 44.5435714,7.86133929 44.5403571,7.82919643 C44.5347321,7.77857143 44.5307143,7.72714286 44.5307143,7.67892857 L44.5307143,5.66196429 C44.1642857,5.56875 44.0477679,5.52375 43.9963393,5.41848214 C43.9457143,5.31964286 43.9730357,5.20633929 44.0975893,4.90017857 C43.7657143,4.80696429 43.3422321,4.70973214 42.94125,4.70973214 Z M42.9709821,9.40901786 C42.7435714,9.40901786 42.6270536,9.25232143 42.5434821,9.13741071 C42.5274107,9.11651786 42.5129464,9.095625 42.4960714,9.07553571 C42.0854464,8.56526786 41.76,8.00276786 41.5309821,7.40330357 C41.2240179,6.60053571 40.9966071,5.50044643 41.6523214,4.81580357 C41.9552679,4.5 42.3891964,4.33928571 42.94125,4.33928571 C43.4748214,4.33928571 44.0300893,4.49035714 44.3997321,4.60366071 L44.5813393,4.65910714 L44.521875,4.83910714 C44.5154464,4.85919643 44.4985714,4.90339286 44.4744643,4.95883929 C44.4503571,5.01669643 44.3973214,5.14285714 44.3659821,5.23366071 C44.4583929,5.26339286 44.5917857,5.29714286 44.6520536,5.31321429 C44.7091071,5.32767857 44.7541071,5.33973214 44.7733929,5.34616071 L44.9011607,5.38794643 L44.9011607,7.68053571 C44.9011607,7.71669643 44.904375,7.75526786 44.9083929,7.79383929 C44.9220536,7.92321429 44.9566071,8.26714286 44.6166964,8.3025 C44.5082143,8.31375 44.4109821,8.34589286 44.3290179,8.39892857 C44.19,8.48651786 44.0855357,8.62875 43.97625,8.77901786 L43.9119643,8.86580357 C43.7946429,9.02330357 43.6451786,9.19928571 43.4314286,9.30375 C43.2996429,9.36883929 43.149375,9.40419643 42.9870536,9.40901786 L42.9709821,9.40901786 L42.9709821,9.40901786 Z" id="Fill-44" fill="#1C263C"></path>
            <path d="M44.161875,2.745 C44.1,2.92982143 44.038125,3.11464286 43.9770536,3.30026786 C43.3076786,2.87517857 42.7250893,2.334375 42.125625,1.81928571 C42.2003571,1.79517857 42.6495536,1.69794643 42.6808929,1.63446429 C42.7122321,1.57098214 42.5209821,1.153125 42.4960714,1.07919643 C43.1903571,1.07919643 43.8846429,1.07919643 44.578125,1.07919643 C44.7934821,1.07919643 44.7171429,1.16035714 44.7171429,1.34357143 C44.7171429,1.52035714 44.7171429,1.69633929 44.7171429,1.87232143 C44.7171429,2.22428571 44.7171429,2.57705357 44.7171429,2.92982143 C44.5315179,2.86794643 44.3458929,2.806875 44.161875,2.745" id="Fill-45" fill="#616073"></path>
            <path d="M42.5105357,1.90848214 C42.5258036,1.92214286 42.5402679,1.935 42.5563393,1.94866071 C42.9774107,2.31589286 43.4113393,2.69357143 43.8774107,3.01339286 L44.0445536,2.51116071 L44.5315179,2.67348214 L44.5315179,1.34357143 C44.5315179,1.31544643 44.533125,1.28892857 44.5355357,1.26401786 L42.7708929,1.26401786 C42.8729464,1.52196429 42.8922321,1.625625 42.8472321,1.71723214 C42.8046429,1.8 42.7234821,1.84580357 42.5105357,1.90848214 Z M44.0766964,3.583125 L43.8766071,3.45616071 C43.3116964,3.09696429 42.8038393,2.65419643 42.3128571,2.22669643 C42.21,2.1375 42.1079464,2.04830357 42.0050893,1.95910714 L41.7567857,1.74616071 L42.0669643,1.64330357 C42.0878571,1.636875 42.13125,1.62482143 42.1883036,1.61035714 C42.2501786,1.59428571 42.3835714,1.56053571 42.474375,1.53080357 C42.4430357,1.44 42.3908036,1.31383929 42.3666964,1.25598214 C42.3433929,1.20053571 42.3257143,1.15633929 42.3192857,1.13625 L42.2373214,0.892767857 L44.5757143,0.892767857 C44.6689286,0.892767857 44.775,0.904017857 44.8489286,0.986785714 C44.9276786,1.07276786 44.9148214,1.175625 44.9059821,1.25035714 C44.9035714,1.276875 44.9003571,1.30741071 44.9003571,1.34276786 L44.9003571,3.18616071 L44.2767857,2.97803571 L44.0766964,3.583125 L44.0766964,3.583125 Z" id="Fill-46" fill="#1C263C"></path>
            <g id="Group-50" transform="translate(37.767857, 0.000000)">
                <mask id="mask-6" fill="white">
                    <use xlink:href="#path-5"></use>
                </mask>
                <g id="Clip-48"></g>
                <path d="M3.06241071,2.37455357 C3.27133929,2.44446429 3.56705357,2.48383929 3.69482143,2.66705357 C4.01866071,3.13473214 4.25410714,3.695625 4.72741071,4.03955357 C4.12232143,4.67196429 3.31633929,5.05446429 2.53928571,4.48151786 C1.75419643,3.90294643 1.30821429,2.93705357 0.794732143,2.13669643 C0.68625,1.96875 0.576160714,1.80241071 0.452410714,1.64571429 C0.400982143,1.57821429 0.344732143,1.51151786 0.285267857,1.44964286 C0.344732143,1.35 0.432321429,1.27044643 0.530357143,1.21017857 C0.960267857,0.940982143 1.55973214,0.959464286 2.041875,1.04544643 C2.43803571,1.11616071 3.01419643,1.27205357 3.20464286,1.67383929 C3.30107143,1.87553571 3.12910714,2.17446429 3.06241071,2.37455357" id="Fill-47" fill="#616073" mask="url(#mask-6)"></path>
                <path d="M0.52875,1.44241071 C0.55125,1.47053571 0.575357143,1.50026786 0.600267857,1.53160714 C0.734464286,1.70357143 0.852589286,1.88357143 0.951428571,2.03625 C1.06955357,2.21946429 1.18366071,2.413125 1.29535714,2.60116071 C1.67785714,3.24321429 2.07321429,3.90696429 2.65017857,4.33285714 C2.87035714,4.49598214 3.10258929,4.57794643 3.34285714,4.57794643 C3.774375,4.57794643 4.16571429,4.31678571 4.45339286,4.05241071 C4.17776786,3.80008929 3.98571429,3.48348214 3.80008929,3.17571429 C3.71491071,3.03428571 3.63294643,2.90008929 3.54535714,2.77232143 C3.48348214,2.68473214 3.31473214,2.638125 3.16366071,2.59633929 C3.10982143,2.58107143 3.054375,2.56580357 3.00616071,2.54973214 L2.829375,2.49107143 L2.88803571,2.31508929 C2.90410714,2.266875 2.92580357,2.21383929 2.94830357,2.15758929 C2.99973214,2.02901786 3.08008929,1.83535714 3.03991071,1.75178571 C2.92178571,1.50428571 2.57625,1.32830357 2.01053571,1.22625 C1.43035714,1.12258929 0.943392857,1.17 0.629196429,1.36607143 C0.589821429,1.39017857 0.556875,1.41589286 0.52875,1.44241071 Z M3.34205357,4.94839286 C3.02223214,4.94839286 2.71526786,4.84151786 2.42919643,4.63098214 C1.79116071,4.16008929 1.37651786,3.46339286 0.976339286,2.79 C0.861428571,2.59633929 0.752946429,2.41392857 0.638839286,2.23633929 C0.545625,2.09008929 0.433125,1.91892857 0.307767857,1.75901786 C0.252321429,1.68830357 0.201696429,1.62803571 0.151875,1.57580357 L0.0554464286,1.47375 L0.128571429,1.35321429 C0.199285714,1.23508929 0.301339286,1.13303571 0.433125,1.051875 C0.826875,0.805178571 1.400625,0.740892857 2.075625,0.862232143 C2.77473214,0.987589286 3.19821429,1.22705357 3.37258929,1.59267857 C3.47544643,1.80723214 3.38946429,2.04991071 3.30910714,2.25241071 C3.49875,2.30544643 3.72053571,2.37776786 3.8475,2.56098214 C3.94232143,2.69839286 4.03071429,2.84383929 4.11589286,2.98366071 C4.32803571,3.33482143 4.528125,3.66508929 4.83669643,3.89008929 L5.00785714,4.01464286 L4.86080357,4.16732143 C4.37303571,4.67839286 3.84830357,4.94839286 3.34205357,4.94839286 L3.34205357,4.94839286 Z" id="Fill-49" fill="#1C263C" mask="url(#mask-6)"></path>
            </g>
            <path d="M26.5813393,3.66991071 C27.7690179,2.75303571 29.266875,2.33839286 30.6514286,1.81928571 C31.8849107,6.013125 33.6463393,10.0446429 35.9051786,13.7876786 C37.0647321,15.7082143 38.3504464,17.5508036 39.7422321,19.310625 C40.4276786,20.1800893 41.1404464,21.0278571 41.8741071,21.8571429 C42.0508929,22.055625 42.226875,22.2525 42.4052679,22.449375 C42.5635714,22.6229464 42.2935714,22.9283036 42.181875,23.1147321 C41.8982143,23.5832143 41.56875,24.0203571 41.1975,24.4221429 C40.8583929,24.7901786 40.4855357,25.1260714 40.0861607,25.4274107 C39.8844643,25.5792857 39.6763393,25.7239286 39.4625893,25.8589286 C39.3533036,25.9280357 39.2448214,25.9955357 39.1339286,26.0598214 C38.9732143,26.1522321 38.8470536,26.3073214 38.7072321,26.1514286 C37.9832143,25.34625 37.2841071,24.5185714 36.6123214,23.67 C35.2502679,21.9511607 33.9950893,20.1463393 32.8532143,18.2740179 C30.5541964,14.5028571 28.7180357,10.4592857 27.2973214,6.27910714 C27.09,5.66919643 26.8915179,5.056875 26.701875,4.44053571 C26.6608929,4.30714286 26.6199107,4.17375 26.5813393,4.04035714 C26.5990179,4.00901786 26.7516964,3.98330357 26.78625,3.97205357 C26.9027679,3.93348214 27.0200893,3.89410714 27.1358036,3.85553571 C26.9509821,3.79366071 26.7645536,3.73178571 26.5813393,3.66991071" id="Fill-51" fill="#616073"></path>
            <path d="M26.80875,4.156875 C26.8320536,4.23321429 26.8561607,4.30875 26.8794643,4.38508929 C27.0691071,5.000625 27.2683929,5.61776786 27.4725,6.21803571 C28.9358036,10.5251786 30.8000893,14.5486607 33.0123214,18.1767857 C34.1541964,20.0507143 35.4141964,21.8595536 36.7585714,23.5542857 C37.4247321,24.395625 38.1270536,25.228125 38.8446429,26.026875 C38.86875,26.0132143 38.9057143,25.9883036 38.930625,25.9698214 C38.9667857,25.9465179 39.00375,25.9208036 39.0415179,25.8983036 C39.1508036,25.8348214 39.2584821,25.7689286 39.36375,25.7014286 C39.5783036,25.5664286 39.7832143,25.4241964 39.976875,25.27875 C40.3730357,24.9798214 40.7378571,24.6495536 41.0633036,24.2951786 C41.4241071,23.90625 41.74875,23.4763393 42.0235714,23.0183036 C42.046875,22.9813393 42.0733929,22.9403571 42.1039286,22.8977679 C42.15375,22.8246429 42.2863393,22.6309821 42.2702679,22.573125 C42.0910714,22.3770536 41.9150893,22.179375 41.7375,21.9800893 C40.9901786,21.1363393 40.2701786,20.2765179 39.5975893,19.4255357 C38.1808929,17.634375 36.8863393,15.7692857 35.7476786,13.8833036 C33.5298214,10.2109821 31.7764286,6.23491071 30.5316964,2.06196429 C30.3275893,2.13669643 30.1210714,2.20982143 29.91375,2.28294643 C28.9044643,2.64133929 27.8638393,3.01017857 26.983125,3.60803571 L27.7224107,3.85473214 L26.8457143,4.14723214 C26.8360714,4.15044643 26.8240179,4.15285714 26.80875,4.156875 Z M38.8341964,26.4029464 C38.7666964,26.4029464 38.6654464,26.3804464 38.570625,26.274375 C37.8482143,25.4708036 37.1402679,24.6326786 36.4676786,23.7841071 C35.1160714,22.078125 33.8464286,20.2564286 32.6965179,18.3696429 C30.470625,14.7182143 28.5950893,10.6698214 27.1229464,6.33776786 C26.9180357,5.73348214 26.7171429,5.113125 26.5258929,4.494375 C26.4841071,4.36017857 26.4439286,4.22678571 26.40375,4.09339286 L26.3804464,4.01303571 L26.4238393,3.94232143 C26.4519643,3.89892857 26.4905357,3.87080357 26.5379464,3.85071429 L26.1932143,3.73580357 L26.4688393,3.52366071 C27.455625,2.76348214 28.6425,2.34241071 29.7908036,1.93419643 C30.06,1.839375 30.3251786,1.74455357 30.5879464,1.64651786 L30.774375,1.57660714 L30.830625,1.76705357 C32.0697321,5.97857143 33.8295536,9.99080357 36.0650893,13.6920536 C37.1957143,15.564375 38.4814286,17.4166071 39.8884821,19.1957143 C40.5570536,20.041875 41.2722321,20.8952679 42.0155357,21.7341964 C42.1899107,21.931875 42.3666964,22.12875 42.5442857,22.3248214 C42.7716964,22.5747321 42.5450893,22.9074107 42.4100893,23.1058929 C42.3851786,23.1436607 42.3602679,23.1790179 42.3409821,23.2103571 C42.0525,23.6892857 41.7141964,24.1392857 41.3357143,24.5483036 C40.995,24.9163393 40.6141071,25.2626786 40.2002679,25.5736607 C40.0001786,25.7255357 39.785625,25.8725893 39.5630357,26.0148214 C39.4521429,26.0855357 39.3420536,26.1530357 39.2279464,26.2189286 C39.1982143,26.235 39.1708929,26.2558929 39.1427679,26.274375 C39.054375,26.3338393 38.9563393,26.4029464 38.8341964,26.4029464 L38.8341964,26.4029464 Z" id="Fill-52" fill="#3C4257"></path>
            <path d="M25.6540179,4.595625 C25.8388393,4.53375 26.0244643,4.47267857 26.2100893,4.41080357 C28.4440179,12.7333929 32.5575,20.3673214 38.053125,26.9879464 C36.7810714,27.7690179 35.5130357,28.6505357 34.7223214,29.9491071 C33.8367857,29.3689286 33.2164286,28.4954464 32.5976786,27.6565179 C32.2995536,27.2523214 31.9966071,26.8489286 31.6558929,26.4784821 C31.4863393,26.2952679 31.3071429,26.1192857 31.1166964,25.9577679 C30.9350893,25.8034821 30.9640179,25.4836607 31.0202679,25.2610714 C31.0700893,25.0714286 31.1721429,24.9042857 31.2613393,24.7315179 C31.3159821,24.6254464 31.3633929,24.5145536 31.3899107,24.3972321 C31.3208036,24.2734821 31.2516964,24.1497321 31.1809821,24.0251786 C30.8796429,23.49 30.5694643,22.9620536 30.2528571,22.4357143 C29.6477679,21.4328571 29.0209821,20.4428571 28.3941964,19.4544643 C27.765,18.466875 27.1358036,17.4792857 26.5258929,16.4804464 C26.2317857,15.9983036 25.9416964,15.5129464 25.6580357,15.024375 C25.3960714,14.5711607 25.2120536,13.9564286 24.67125,13.7892857 C24.2260714,13.6526786 23.7495536,13.6759821 23.3051786,13.539375 C22.7458929,13.3674107 22.6615179,12.7430357 22.4429464,12.2592857 C21.9792857,11.2299107 21.40875,10.2825 20.6525893,9.44116071 C20.3833929,9.14142857 20.109375,8.84571429 19.850625,8.53794643 C19.6079464,8.25026786 19.4890179,8.05339286 19.7124107,7.71267857 C20.1230357,7.08991071 20.716875,6.60696429 21.3235714,6.18589286 C22.6671429,5.25375 24.1963393,4.29830357 25.8380357,4.04116071 C25.779375,4.22517857 25.7158929,4.41080357 25.6540179,4.595625" id="Fill-53" fill="#616073"></path>
            <path d="M25.5648214,4.27901786 C24.0983036,4.58839286 22.71375,5.44660714 21.4304464,6.33776786 C20.925,6.68892857 20.2901786,7.17348214 19.8683036,7.81473214 C19.7204464,8.04053571 19.7590179,8.14098214 19.9928571,8.41821429 C20.1929464,8.65607143 20.4058929,8.89151786 20.6124107,9.11892857 L20.7916071,9.31741071 C21.5067857,10.1121429 22.1022321,11.0499107 22.6133036,12.1829464 C22.6655357,12.2978571 22.7089286,12.4175893 22.7515179,12.5349107 C22.8929464,12.9214286 23.0150893,13.2557143 23.3622321,13.3625893 C23.5695536,13.4260714 23.7841071,13.4525893 24.013125,13.4807143 C24.2469643,13.5096429 24.4896429,13.539375 24.7275,13.6133036 C25.2273214,13.7667857 25.45875,14.2264286 25.6628571,14.6322321 C25.7142857,14.7350893 25.7665179,14.8371429 25.8211607,14.9319643 C26.0911607,15.3988393 26.3740179,15.87375 26.6858036,16.3848214 C27.2651786,17.3338393 27.8726786,18.2876786 28.4600893,19.2109821 L28.5516964,19.3564286 C29.1929464,20.3641071 29.8157143,21.3508929 30.4135714,22.3416964 C30.7510714,22.9017857 31.0564286,23.4225 31.3449107,23.9351786 C31.4148214,24.058125 31.4847321,24.1842857 31.5538393,24.3088393 L31.5883929,24.3707143 L31.573125,24.440625 C31.545,24.5595536 31.4983929,24.6784821 31.426875,24.8175 C31.4091964,24.8544643 31.3891071,24.8890179 31.3714286,24.924375 C31.3015179,25.0553571 31.235625,25.1783036 31.2026786,25.3092857 C31.14,25.5479464 31.1544643,25.7480357 31.2388393,25.81875 C31.4244643,25.9770536 31.606875,26.1522321 31.7933036,26.3555357 C32.1420536,26.7332143 32.4441964,27.1366071 32.7479464,27.5488393 L32.8323214,27.6653571 C33.373125,28.3990179 33.9308036,29.1567857 34.6692857,29.6895536 C35.4399107,28.5155357 36.6042857,27.6741964 37.7758929,26.9445536 C32.2047321,20.1897321 28.27125,12.69 26.0823214,4.65107143 L25.3615179,4.89133929 L25.5648214,4.27901786 Z M34.7825893,30.2094643 L34.621875,30.1041964 C33.75,29.53125 33.1320536,28.6923214 32.535,27.8815179 L32.450625,27.7658036 C32.1516964,27.3608036 31.8559821,26.9670536 31.5216964,26.6038393 C31.3449107,26.4117857 31.17375,26.2470536 31.0001786,26.0991964 C30.7261607,25.8661607 30.7840179,25.4458929 30.8442857,25.2144643 C30.8884821,25.0408929 30.9688393,24.8922321 31.0451786,24.7475893 C31.0628571,24.7138393 31.0821429,24.6792857 31.0998214,24.6455357 C31.1424107,24.5619643 31.1729464,24.4904464 31.1946429,24.4213393 C31.1383929,24.3192857 31.0797321,24.2172321 31.0226786,24.1151786 C30.7366071,23.6057143 30.4336607,23.0882143 30.0977679,22.5305357 C29.5015179,21.5429464 28.8779464,20.5585714 28.2391071,19.5525 L28.1466964,19.4070536 C27.5592857,18.4829464 26.9517857,17.5266964 26.37,16.5752679 C26.0558036,16.0617857 25.7713393,15.5844643 25.4997321,15.1151786 C25.4426786,15.0147321 25.3872321,14.90625 25.3317857,14.7969643 C25.1453571,14.4249107 24.9669643,14.0729464 24.6174107,13.9652679 C24.4108929,13.9017857 24.1955357,13.8752679 23.9673214,13.8471429 C23.7334821,13.8182143 23.49,13.7884821 23.2521429,13.7145536 C22.730625,13.5538393 22.55625,13.0789286 22.4035714,12.6602679 C22.3625893,12.5445536 22.3216071,12.4360714 22.2758036,12.3340179 C21.7808036,11.2363393 21.2054464,10.3299107 20.5159821,9.56410714 L20.3375893,9.36642857 C20.1294643,9.13660714 19.9149107,8.89875 19.71,8.65607143 C19.4528571,8.35071429 19.2640179,8.060625 19.5597321,7.60982143 C20.0169643,6.91553571 20.6871429,6.40205357 21.2207143,6.03241071 C22.6285714,5.05526786 24.1585714,4.11589286 25.813125,3.85633929 L26.1136607,3.80892857 L25.948125,4.30232143 L26.3378571,4.17214286 L26.3884821,4.36178571 C28.5701786,12.4858929 32.5438393,20.05875 38.1961607,26.8698214 L38.3327679,27.0345536 L38.1495536,27.1454464 C36.7095536,28.0285714 35.6022321,28.8594643 34.8814286,30.0447321 L34.7825893,30.2094643 L34.7825893,30.2094643 Z" id="Fill-54" fill="#3C4257"></path>
            <path d="M27.135,3.85553571 C26.6078571,3.830625 26.0477679,4.29589286 25.6540179,4.595625" id="Fill-55" fill="#616073"></path>
            <path d="M25.6548214,4.80616071 C25.5913393,4.80616071 25.5286607,4.77723214 25.486875,4.72258929 C25.4161607,4.63017857 25.4338393,4.49758929 25.52625,4.426875 L25.6146429,4.359375 C26.02125,4.04598214 26.5821429,3.61607143 27.1446429,3.64339286 C27.2611607,3.64901786 27.3519643,3.74785714 27.3455357,3.864375 C27.3399107,3.98089286 27.2442857,4.07089286 27.1253571,4.06526786 C26.7147321,4.04517857 26.2269643,4.42044643 25.8717857,4.69366071 L25.7817857,4.76196429 C25.745625,4.7925 25.6990179,4.80616071 25.6548214,4.80616071" id="Fill-56" fill="#3C4257"></path>
            <path d="M18.8067857,22.1769643 C19.5147321,23.0858036 20.1053571,24.0758036 20.7482143,25.0280357 C21.0455357,25.4691964 21.3549107,25.9023214 21.6908036,26.3145536 C21.88125,26.5508036 21.9752679,26.73 22.291875,26.7404464 C22.5867857,26.7516964 22.8833036,26.7203571 23.1717857,26.656875 C24.2445536,26.4182143 25.1903571,25.7649107 26.0140179,25.0625893 C26.206875,24.89625 26.3973214,24.7258929 26.5829464,24.5491071 C26.7870536,24.3570536 26.9373214,24.2622321 26.9469643,23.9705357 C26.9622321,23.4313393 26.8433036,22.8961607 26.65125,22.3947321 C26.2550893,21.3677679 25.5704464,20.4645536 24.8295536,19.6609821 C24.4888393,19.2913393 24.1288393,18.939375 23.7551786,18.6026786 C23.5824107,18.4467857 23.4064286,18.2941071 23.2280357,18.1446429 C23.1115179,18.0466071 23.0954464,17.9935714 22.9371429,18.0257143 C22.7804464,18.0570536 22.6277679,18.1004464 22.4766964,18.1542857 C21.5252679,18.4958036 20.8060714,19.2375 20.0258036,19.8474107 C19.6280357,20.1575893 19.2029464,20.4420536 18.7272321,20.6172321 C18.6058929,21.105 18.5753571,21.7141071 18.8067857,22.1769643" id="Fill-57" fill="#BAB8BE"></path>
            <path d="M19.0076786,22.0508036 C19.4946429,22.6791964 19.9317857,23.3525893 20.3552679,24.001875 C20.5489286,24.3016071 20.7433929,24.5997321 20.9434821,24.89625 C21.2874107,25.4049107 21.5815179,25.8083036 21.8724107,26.1650893 C21.8989286,26.1980357 21.9238393,26.229375 21.9471429,26.2591071 C22.0941964,26.4439286 22.1416071,26.499375 22.2991071,26.5033929 C22.5666964,26.5146429 22.8407143,26.4873214 23.1195536,26.4254464 C24.2477679,26.1739286 25.2233036,25.4241964 25.8589286,24.8809821 C26.0445536,24.7234821 26.2269643,24.5595536 26.4190179,24.3763393 C26.4479464,24.350625 26.4736607,24.3249107 26.5001786,24.3016071 C26.6625,24.1529464 26.7050893,24.10875 26.7099107,23.9608929 C26.724375,23.4948214 26.6295536,22.9958036 26.4294643,22.4775 C26.0975893,21.6160714 25.5342857,20.7715179 24.6551786,19.8184821 C24.3361607,19.4713393 23.9785714,19.1201786 23.5976786,18.7754464 C23.4273214,18.6227679 23.2521429,18.4708929 23.0761607,18.3230357 C23.0528571,18.3029464 23.0335714,18.2852679 23.0150893,18.2691964 C23.0078571,18.2627679 23.0022321,18.2571429 22.9966071,18.2515179 C22.9917857,18.2523214 22.9869643,18.253125 22.9821429,18.2539286 C22.8391071,18.2828571 22.696875,18.3222321 22.5554464,18.3728571 C21.8683929,18.6195536 21.3123214,19.0848214 20.7241071,19.5774107 C20.5433036,19.7276786 20.3576786,19.8835714 20.1696429,20.0298214 C19.7083929,20.3898214 19.3194643,20.6284821 18.928125,20.7883929 C18.8276786,21.2785714 18.8558036,21.7317857 19.0076786,22.0508036 Z M22.4067857,26.9775 L22.4067857,26.9775 C22.3658036,26.9775 22.3232143,26.9758929 22.2822321,26.9742857 C21.8989286,26.960625 21.735,26.7525 21.5766964,26.55 C21.5558036,26.521875 21.5316964,26.4929464 21.5075893,26.4632143 C21.2078571,26.0959821 20.9049107,25.6813393 20.5545536,25.160625 C20.3536607,24.8616964 20.1559821,24.5603571 19.9607143,24.2590179 C19.5388393,23.6105357 19.1025,22.9395536 18.6211607,22.3216071 L18.59625,22.2822321 C18.2916964,21.6747321 18.4033929,20.9426786 18.4974107,20.559375 L18.5279464,20.4380357 L18.6460714,20.3946429 C19.0309821,20.2516071 19.4134821,20.0258036 19.8819643,19.659375 C20.0627679,19.5179464 20.2459821,19.3644643 20.4227679,19.2166071 C21.0166071,18.7191964 21.6313393,18.2049107 22.3979464,17.9300893 C22.5602679,17.8714286 22.7258036,17.825625 22.8913393,17.7926786 C23.1364286,17.7436607 23.2521429,17.8473214 23.3341071,17.92125 C23.3477679,17.9341071 23.3622321,17.9477679 23.3807143,17.9622321 C23.5615179,18.1133036 23.7407143,18.2691964 23.9134821,18.4258929 C24.3072321,18.7802679 24.6736607,19.141875 25.0039286,19.4994643 C25.9232143,20.4966964 26.5170536,21.3894643 26.870625,22.3079464 C27.0924107,22.8857143 27.196875,23.4466071 27.1824107,23.9761607 C27.1703571,24.328125 26.9927679,24.4920536 26.8191964,24.6495536 C26.7958929,24.67125 26.7701786,24.69375 26.7452679,24.7194643 C26.55,24.9026786 26.3547321,25.0786607 26.1658929,25.239375 C25.4916964,25.8147321 24.4534821,26.611875 23.2224107,26.8850893 C22.9475893,26.9469643 22.6727679,26.9775 22.4067857,26.9775 L22.4067857,26.9775 Z" id="Fill-58" fill="#3C4257"></path>
        </g>
    </g>
</svg>